<?xml version="1.0" encoding="utf-8"?>
<!-- Generator: Adobe Illustrator 23.0.6, SVG Export Plug-In . SVG Version: 6.00 Build 0)  -->
<svg version="1.1" id="Layer_1" xmlns="http://www.w3.org/2000/svg" xmlns:xlink="http://www.w3.org/1999/xlink" x="0px" y="0px"
	 viewBox="0 0 346.5 189.5" style="enable-background:new 0 0 346.5 189.5;" xml:space="preserve">
<style type="text/css">
	.st0{fill-rule:evenodd;clip-rule:evenodd;fill:#EC1C24;}
	.st1{fill:none;}
	.st2{fill:#079C42;}
	.st3{fill:#EA2127;}
	.st4{display:none;}
	.st5{display:inline;}
	.st6{clip-path:url(#SVGID_2_);}
	.st7{fill:none;stroke:#DF2127;stroke-width:0.5;stroke-miterlimit:10;}
	.st8{clip-path:url(#SVGID_4_);}
	.st9{clip-path:url(#SVGID_6_);}
	.st10{clip-path:url(#SVGID_8_);}
	.st11{clip-path:url(#SVGID_10_);}
	.st12{clip-path:url(#SVGID_12_);}
	.st13{clip-path:url(#SVGID_14_);}
	.st14{clip-path:url(#SVGID_16_);}
	.st15{clip-path:url(#SVGID_18_);}
	.st16{display:inline;fill:none;stroke:#DF2127;stroke-width:0.5;stroke-miterlimit:10;}
</style>
<g id="лого">
	<g>
		<path class="st0" d="M11.2,179.3h3.1c2.2,0,2.9-0.5,2.9-2.8V150h-2.9c-3.8,0-4,0.6-4.4,2.4L9,156.5H0l0.5-17.1l50.6,0l0.5,17.1h-9
			l-0.9-4.1c-0.4-2-0.8-2.4-4.4-2.4l-2.9,0l0,26.5c0,1.4,0,2.8,2.8,2.8l3.1,0v8.9l-29.2,0L11.2,179.3L11.2,179.3z M81.1,178.8
			c-5.9,0-6.4-6.5-6.4-12.6v-4.7c0-6.3,0.5-12.7,6.4-12.7c5.5,0,6.3,5.5,6.3,12.8l0,4.7C87.4,172.3,86.9,178.8,81.1,178.8
			L81.1,178.8z M81.1,138.2L81.1,138.2c-5.4,0-14.9,1.4-21.1,8.9c-4.8,5.8-5.9,12.3-5.8,16.7c0,4.3,0.8,11.5,5.5,17
			c5.4,6.4,14.4,8.6,21.5,8.6c7.1,0,16.2-2.2,21.6-8.6c4.6-5.5,5.4-12.7,5.4-17c0-6-2.1-12.4-5.8-16.7
			C96,139.6,86.5,138.2,81.1,138.2L81.1,138.2z M136.8,139.4l9.8,19.1h0.6l9.1-19.1h24.3v8.9h-2.3c-3,0-2.9,1.4-2.9,2.8v25.4
			c0,1.4-0.1,2.8,2.9,2.8h2.3v8.9H154v-8.9l1.5,0c2.9,0,2.9-1.4,2.9-2.8v-16.6l-0.4,0l-9.9,20.7l-7.7,0l-10.7-20.7l-0.5-0.1l0,16.7
			c0,1.4,0,2.8,2.9,2.8h1.5v8.9l-20.2,0l0-8.9l2.4,0c2.9,0,2.9-1.4,2.9-2.8v-25.4c0-1.4,0-2.8-2.9-2.8h-2.4v-8.9L136.8,139.4
			L136.8,139.4z M210.8,152.1h0.4l4.4,13.6h-9.8L210.8,152.1L210.8,152.1z M195.3,139.4L195.3,139.4v8.9h3c0.9,0,1.9,0.2,1.9,1.1
			c0,0.6-0.3,1.1-0.7,2.2l-8.6,23.4c-1.2,3.2-1.6,4.3-4.9,4.3l-1.3,0l0,8.9h20.1l0-8.9H204c-2.8,0-2.4-1.5-2.2-2.2l0.2-0.8l16.9,0
			c0.6,1.4,0.6,1.8,0.6,1.9c0,0.6-0.6,1.1-2.2,1.1l-2,0v8.9h26v-8.9h-1.2c-3.1,0-3.5-2-4.2-4.2l-11.6-35.7L195.3,139.4L195.3,139.4z
			 M249.6,179.3h3.1c2.2,0,2.9-0.5,2.9-2.8v-26.5h-2.9c-3.8,0-4,0.6-4.4,2.4l-0.9,4.1h-9l0.5-17.1h50.6l0.5,17.1h-9l-0.9-4.1
			c-0.4-2-0.8-2.4-4.4-2.4h-3v26.5c0,1.4,0,2.8,2.9,2.8h3.1v8.9h-29.2L249.6,179.3L249.6,179.3z M319.5,178.9
			c-5.9,0-6.3-6.5-6.3-12.6v-4.7c0-6.3,0.5-12.7,6.4-12.7c5.5,0,6.3,5.5,6.3,12.8v4.7C325.9,172.4,325.4,178.9,319.5,178.9
			L319.5,178.9z M319.5,138.2L319.5,138.2c-5.4,0-14.9,1.4-21.1,8.9c-4.8,5.8-5.9,12.4-5.9,16.8c0,4.3,0.8,11.5,5.5,17
			c5.4,6.4,14.4,8.6,21.5,8.6c7.1,0,16.3-2.2,21.6-8.6c4.6-5.5,5.4-12.7,5.4-17c0-6-2.1-12.4-5.8-16.8
			C334.5,139.6,325,138.2,319.5,138.2L319.5,138.2z"/>
	</g>
	<g>
		<g>
			<path class="st1" d="M106.4,35.6c-5.7-9.7-26-15.6-36.8-0.2C78.6,27.9,92.8,25.4,106.4,35.6z"/>
			<path class="st1" d="M251.1,33.4c10-7.3,18.6-10,30.6-10.5c0-0.7-0.1-2.4-0.7-3.1C261.8,21.2,254.9,28.1,251.1,33.4z"/>
			<path class="st2" d="M282.1,18.3c-14.8,0.6-30.4,5-39.8,17.5c2.7,5.5,4.4,11.9,4.5,20.2c0.1,8.6-1.8,17-5.5,24.6
				c19.5-14.1,11.8-47.1,41.5-52.5C284.7,26.5,283.6,19.4,282.1,18.3z M281.7,22.9c-12,0.5-20.7,3.2-30.6,10.5
				c3.9-5.3,10.7-12.2,29.9-13.5C281.5,20.6,281.7,22.2,281.7,22.9z"/>
			<path class="st2" d="M109.3,73.4c-4.2-1.5-9.8-3.6-15.2-6.5c-29.2-15.5-14-36,2.2-28.9c4.5,1.9,8.1,5.3,10.3,8.1
				c0.7-4.1,1.8-8.1,3.4-11.8c-9.3-10.4-24.4-14-35.5-7.1c-11,6.9-14.4,21-7.8,32.2c9.6,16.4,37.4,24.2,49.3,27
				c-2.7-4.1-5-8.4-6.7-12.9C109.4,73.6,109.4,73.5,109.3,73.4z M69.6,35.4c10.8-15.5,31.1-9.5,36.8,0.2
				C92.8,25.4,78.6,27.9,69.6,35.4z"/>
			<path class="st1" d="M155.8,20.9c1.5,0.2,2.9,0.5,4.2,0.8c-1.2-1.1-2.6-2.3-3.9-3.5c-10.2-2-22.2,3.5-28,11.3
				c1.3-0.7,4-2.1,9.2-4.9C143.8,20.9,149.9,20.1,155.8,20.9z"/>
			<path class="st1" d="M205.2,28.7c1.2,0,2.4,0.1,3.5,0.2c6.9,0.4,14.1,3.4,18.9,9.9c-2.2-6.7-11.4-13.2-22-13.9
				c-2.5,1.7-4.9,3.3-7,4.6C200.6,29,202.8,28.7,205.2,28.7z"/>
			<path class="st1" d="M150.7,40.8c2.2-2.2,6.1-5.6,11.2-8.4c-0.9-0.8-2.8-2.4-5.4-3.8c-4.2,3.2-9.2,9.2-9.3,15.6
				C148.2,43,149.4,41.9,150.7,40.8z"/>
			<path class="st1" d="M127.6,29.9C127.6,29.9,127.7,29.9,127.6,29.9C127.7,29.9,127.7,29.9,127.6,29.9
				C127.6,29.9,127.6,29.9,127.6,29.9z"/>
			<path class="st3" d="M185.4,13.9l6.3-5.6c0,0,0,0-2.3-0.9c-1.1-0.4-2.3-0.7-3.5-1C186,8.7,185.7,11.5,185.4,13.9z"/>
			<path class="st3" d="M170.3,21.5c-0.2-2.6-0.4-5.4-0.7-6.6c-0.6-1.8-3.6-4.8-3.6-4.8s4.2-0.6,6,1.8c0.8,1.1,1.5,3.2,2.2,5.4
				c1.3-3.7,5.6-9.5,6.2-11.9C172,4.6,163.6,6,157.1,9.1c1.9,1.5,3.6,3.2,5.2,4.7C165.2,16.3,167.9,19,170.3,21.5z"/>
			<path class="st3" d="M205.9,16.3c-0.7-0.6-1.5-1.3-2.3-1.9c-2.3,1.7-4.8,3.6-7.1,5.5C199,18.8,202.3,17.3,205.9,16.3z"/>
			<path class="st3" d="M218,20.6c-1.4-0.4-2.9-0.7-4.3-0.9c-1.2,0.4-2.4,1-3.5,1.8c-1.6,1.2-3.1,2.3-4.7,3.3
				c10.5,0.8,19.8,7.2,22,13.9c-4.8-6.4-12.1-9.5-18.9-9.9c-1.1-0.2-2.3-0.2-3.5-0.2c-2.3,0-4.6,0.3-6.6,0.8c-1.4,0.4-2.8,0.8-4,1.4
				c8,4.2,11.4,10.9,12.4,13.2c-6.6-8.6-19.9-15.2-34.8-11.8c-9.2,2.1-16.5,4.8-21.4,8.5c-1.4,1-2.5,2.2-3.5,3.4
				c0.1-6.4,5.1-12.3,9.3-15.6c-3-1.6-6.7-2.8-10.4-1.7c-6.9,2.1-16,2.8-18.5,3c0,0,0,0-0.1,0c0,0,0,0,0,0c-0.4,0-0.6,0-0.6,0
				s0.3-0.1,0.9-0.5c5.8-7.7,17.8-13.3,28-11.3c-2.5-2.1-5.2-4.1-7.6-5.4c-5.8,0.5-11.3,1.8-18.8,6.5
				c-17.4,10.9-22.1,34.1-15.1,52.4c7.5,19.8,26.9,36.1,48.4,40.1c17.4,3.3,36.1,0.4,50.6-8.7c20-12.5,28.2-30.7,28-47.1
				C241.2,41.2,233.3,24.9,218,20.6z"/>
		</g>
		<path class="st2" d="M157.1,21.7c-1.3-0.3-2.7-0.5-4.2-0.8c-5.9-0.9-12,0-18.6,3.6c-5.2,2.8-7.9,4.3-9.2,4.9
			c-0.7,0.3-0.9,0.5-0.9,0.5s0.2,0,0.6,0c0,0,0,0,0,0c2.5-0.2,11.6-0.8,18.5-3c3.6-1.1,7.4,0.1,10.4,1.7c2.5,1.4,4.5,3.1,5.4,3.8
			c4.9-2.8,11-4.9,17.8-4.9c6.1,0,11,1.4,14.8,3.4c1.2-0.6,2.6-1.1,4-1.4c2.2-1.4,4.6-2.9,7-4.6c1.5-1.1,3.1-2.2,4.7-3.3
			c1.1-0.8,2.3-1.4,3.5-1.8c5.7-2.1,12.1-0.5,12.1-0.5s-2.2-2.2-9-3.6c-3.5-0.8-7.4-0.2-10.9,0.8c-3.6,1-6.9,2.5-9.4,3.6
			c2.3-1.8,4.9-3.8,7.1-5.5c0.6-0.4,1.2-0.9,1.8-1.3c3-2.1,5.4,0.4,5.4,0.4s-2.6-4.5-7.2-6.4c-5.4-2.2-12.8,4.6-18.5,11.4
			c0-0.2-0.1-0.4-0.1-0.6c0-1.1,0.1-2.5,0.3-4c0.3-2.5,0.6-5.3,0.4-7.5c-0.1-1.2-0.3-2.1-0.7-2.9c-1.3-2.1-7.2-3.6-7.2-3.6
			s1.8,3,2.4,4.8c0.1,0.2,0,0.4,0,0.7c-0.6,2.4-4.9,8.2-6.2,11.9c-0.7-2.2-1.4-4.4-2.2-5.4c-1.8-2.4-6-1.8-6-1.8s3,3,3.6,4.8
			c0.4,1.2,0.5,4.1,0.7,6.6c-2.4-2.5-5.1-5.3-7.9-7.8c-1.7-1.5-3.4-3.2-5.2-4.7c-2.1-1.7-4.5-3.2-7.3-3.7c-3.2-0.5-6.8,0.4-9.6,1.8
			C132.6,9.6,129,12,129,12s9-3,16.2,0.6c0.1,0.1,0.3,0.1,0.4,0.2c2.4,1.3,5.1,3.3,7.6,5.4C154.6,19.4,155.9,20.6,157.1,21.7z"/>
	</g>
</g>
<g id="гайды" class="st4">
	<g class="st5">
		<g>
			<g>
				<defs>
					<rect id="SVGID_1_" x="160.1" y="189" width="24.9" height="24.9"/>
				</defs>
				<clipPath id="SVGID_2_">
					<use xlink:href="#SVGID_1_"  style="overflow:visible;"/>
				</clipPath>
				<g class="st6">
					<line class="st7" x1="192.5" y1="190.4" x2="161.6" y2="221.3"/>
					<line class="st7" x1="195.5" y1="193.4" x2="164.6" y2="224.3"/>
					<line class="st7" x1="198.5" y1="196.4" x2="167.5" y2="227.3"/>
					<line class="st7" x1="201.4" y1="199.3" x2="170.5" y2="230.3"/>
					<line class="st7" x1="174.7" y1="172.6" x2="143.7" y2="203.5"/>
					<line class="st7" x1="177.6" y1="175.5" x2="146.7" y2="206.5"/>
					<line class="st7" x1="180.6" y1="178.5" x2="149.7" y2="209.4"/>
					<line class="st7" x1="183.6" y1="181.5" x2="152.6" y2="212.4"/>
					<line class="st7" x1="186.6" y1="184.5" x2="155.6" y2="215.4"/>
					<line class="st7" x1="189.5" y1="187.4" x2="158.6" y2="218.4"/>
				</g>
			</g>
		</g>
		<rect x="160.1" y="189" class="st7" width="24.9" height="24.9"/>
	</g>
	<g class="st5">
		<g>
			<g>
				<defs>
					<rect id="SVGID_3_" x="160.1" y="114.1" width="24.9" height="24.9"/>
				</defs>
				<clipPath id="SVGID_4_">
					<use xlink:href="#SVGID_3_"  style="overflow:visible;"/>
				</clipPath>
				<g class="st8">
					<line class="st7" x1="192.5" y1="115.6" x2="161.6" y2="146.5"/>
					<line class="st7" x1="195.5" y1="118.5" x2="164.6" y2="149.5"/>
					<line class="st7" x1="198.5" y1="121.5" x2="167.5" y2="152.4"/>
					<line class="st7" x1="201.4" y1="124.5" x2="170.5" y2="155.4"/>
					<line class="st7" x1="174.7" y1="97.7" x2="143.7" y2="128.6"/>
					<line class="st7" x1="177.6" y1="100.7" x2="146.7" y2="131.6"/>
					<line class="st7" x1="180.6" y1="103.7" x2="149.7" y2="134.6"/>
					<line class="st7" x1="183.6" y1="106.6" x2="152.6" y2="137.6"/>
					<line class="st7" x1="186.6" y1="109.6" x2="155.6" y2="140.5"/>
					<line class="st7" x1="189.5" y1="112.6" x2="158.6" y2="143.5"/>
				</g>
			</g>
		</g>
		<rect x="160.1" y="114.1" class="st7" width="24.9" height="24.9"/>
	</g>
	<g class="st5">
		<g>
			<g>
				<defs>
					<rect id="SVGID_5_" x="160.1" y="213.9" width="24.9" height="24.9"/>
				</defs>
				<clipPath id="SVGID_6_">
					<use xlink:href="#SVGID_5_"  style="overflow:visible;"/>
				</clipPath>
				<g class="st9">
					<line class="st7" x1="192.5" y1="215.3" x2="161.6" y2="246.2"/>
					<line class="st7" x1="195.5" y1="218.3" x2="164.6" y2="249.2"/>
					<line class="st7" x1="198.5" y1="221.2" x2="167.5" y2="252.2"/>
					<line class="st7" x1="201.4" y1="224.2" x2="170.5" y2="255.1"/>
					<line class="st7" x1="174.7" y1="197.4" x2="143.7" y2="228.4"/>
					<line class="st7" x1="177.6" y1="200.4" x2="146.7" y2="231.3"/>
					<line class="st7" x1="180.6" y1="203.4" x2="149.7" y2="234.3"/>
					<line class="st7" x1="183.6" y1="206.4" x2="152.6" y2="237.3"/>
					<line class="st7" x1="186.6" y1="209.3" x2="155.6" y2="240.3"/>
					<line class="st7" x1="189.5" y1="212.3" x2="158.6" y2="243.2"/>
				</g>
			</g>
		</g>
		<rect x="160.1" y="213.9" class="st7" width="24.9" height="24.9"/>
	</g>
	<g class="st5">
		<g>
			<g>
				<defs>
					<rect id="SVGID_7_" x="160.1" y="238.7" width="24.9" height="24.9"/>
				</defs>
				<clipPath id="SVGID_8_">
					<use xlink:href="#SVGID_7_"  style="overflow:visible;"/>
				</clipPath>
				<g class="st10">
					<line class="st7" x1="192.5" y1="240.2" x2="161.6" y2="271.1"/>
					<line class="st7" x1="195.5" y1="243.1" x2="164.6" y2="274.1"/>
					<line class="st7" x1="198.5" y1="246.1" x2="167.5" y2="277.1"/>
					<line class="st7" x1="201.4" y1="249.1" x2="170.5" y2="280"/>
					<line class="st7" x1="174.7" y1="222.3" x2="143.7" y2="253.3"/>
					<line class="st7" x1="177.6" y1="225.3" x2="146.7" y2="256.2"/>
					<line class="st7" x1="180.6" y1="228.3" x2="149.7" y2="259.2"/>
					<line class="st7" x1="183.6" y1="231.2" x2="152.6" y2="262.2"/>
					<line class="st7" x1="186.6" y1="234.2" x2="155.6" y2="265.2"/>
					<line class="st7" x1="189.5" y1="237.2" x2="158.6" y2="268.1"/>
				</g>
			</g>
		</g>
		<rect x="160.1" y="238.7" class="st7" width="24.9" height="24.9"/>
	</g>
	<g class="st5">
		<g>
			<g>
				<defs>
					<rect id="SVGID_9_" x="160.1" y="-27.7" width="24.9" height="24.9"/>
				</defs>
				<clipPath id="SVGID_10_">
					<use xlink:href="#SVGID_9_"  style="overflow:visible;"/>
				</clipPath>
				<g class="st11">
					<line class="st7" x1="192.5" y1="-26.3" x2="161.6" y2="4.6"/>
					<line class="st7" x1="195.5" y1="-23.3" x2="164.6" y2="7.6"/>
					<line class="st7" x1="198.5" y1="-20.3" x2="167.5" y2="10.6"/>
					<line class="st7" x1="201.4" y1="-17.4" x2="170.5" y2="13.6"/>
					<line class="st7" x1="174.7" y1="-44.1" x2="143.7" y2="-13.2"/>
					<line class="st7" x1="177.6" y1="-41.2" x2="146.7" y2="-10.2"/>
					<line class="st7" x1="180.6" y1="-38.2" x2="149.7" y2="-7.3"/>
					<line class="st7" x1="183.6" y1="-35.2" x2="152.6" y2="-4.3"/>
					<line class="st7" x1="186.6" y1="-32.2" x2="155.6" y2="-1.3"/>
					<line class="st7" x1="189.5" y1="-29.3" x2="158.6" y2="1.7"/>
				</g>
			</g>
		</g>
		<rect x="160.1" y="-27.7" class="st7" width="24.9" height="24.9"/>
	</g>
	<g class="st5">
		<g>
			<g>
				<defs>
					<rect id="SVGID_11_" x="160.1" y="-52.6" width="24.9" height="24.9"/>
				</defs>
				<clipPath id="SVGID_12_">
					<use xlink:href="#SVGID_11_"  style="overflow:visible;"/>
				</clipPath>
				<g class="st12">
					<line class="st7" x1="192.5" y1="-51.2" x2="161.6" y2="-20.2"/>
					<line class="st7" x1="195.5" y1="-48.2" x2="164.6" y2="-17.3"/>
					<line class="st7" x1="198.5" y1="-45.2" x2="167.5" y2="-14.3"/>
					<line class="st7" x1="201.4" y1="-42.3" x2="170.5" y2="-11.3"/>
					<line class="st7" x1="174.7" y1="-69" x2="143.7" y2="-38.1"/>
					<line class="st7" x1="177.6" y1="-66.1" x2="146.7" y2="-35.1"/>
					<line class="st7" x1="180.6" y1="-63.1" x2="149.7" y2="-32.1"/>
					<line class="st7" x1="183.6" y1="-60.1" x2="152.6" y2="-29.2"/>
					<line class="st7" x1="186.6" y1="-57.1" x2="155.6" y2="-26.2"/>
					<line class="st7" x1="189.5" y1="-54.2" x2="158.6" y2="-23.2"/>
				</g>
			</g>
		</g>
		<rect x="160.1" y="-52.6" class="st7" width="24.9" height="24.9"/>
	</g>
	<g class="st5">
		<g>
			<g>
				<defs>
					<rect id="SVGID_13_" x="160.1" y="263.1" width="24.9" height="24.9"/>
				</defs>
				<clipPath id="SVGID_14_">
					<use xlink:href="#SVGID_13_"  style="overflow:visible;"/>
				</clipPath>
				<g class="st13">
					<line class="st7" x1="192.5" y1="264.6" x2="161.6" y2="295.5"/>
					<line class="st7" x1="195.5" y1="267.5" x2="164.6" y2="298.5"/>
					<line class="st7" x1="198.5" y1="270.5" x2="167.5" y2="301.5"/>
					<line class="st7" x1="201.4" y1="273.5" x2="170.5" y2="304.4"/>
					<line class="st7" x1="174.7" y1="246.7" x2="143.7" y2="277.6"/>
					<line class="st7" x1="177.6" y1="249.7" x2="146.7" y2="280.6"/>
					<line class="st7" x1="180.6" y1="252.7" x2="149.7" y2="283.6"/>
					<line class="st7" x1="183.6" y1="255.6" x2="152.6" y2="286.6"/>
					<line class="st7" x1="186.6" y1="258.6" x2="155.6" y2="289.5"/>
					<line class="st7" x1="189.5" y1="261.6" x2="158.6" y2="292.5"/>
				</g>
			</g>
		</g>
		<rect x="160.1" y="263.1" class="st7" width="24.9" height="24.9"/>
	</g>
	<g class="st5">
		<g>
			<g>
				<defs>
					<rect id="SVGID_15_" x="-25" y="139.6" width="24.9" height="24.9"/>
				</defs>
				<clipPath id="SVGID_16_">
					<use xlink:href="#SVGID_15_"  style="overflow:visible;"/>
				</clipPath>
				<g class="st14">
					<line class="st7" x1="7.3" y1="141" x2="-23.6" y2="171.9"/>
					<line class="st7" x1="10.3" y1="144" x2="-20.6" y2="174.9"/>
					<line class="st7" x1="13.3" y1="146.9" x2="-17.7" y2="177.9"/>
					<line class="st7" x1="16.2" y1="149.9" x2="-14.7" y2="180.9"/>
					<line class="st7" x1="-10.5" y1="123.1" x2="-41.5" y2="154.1"/>
					<line class="st7" x1="-7.6" y1="126.1" x2="-38.5" y2="157.1"/>
					<line class="st7" x1="-4.6" y1="129.1" x2="-35.5" y2="160"/>
					<line class="st7" x1="-1.6" y1="132.1" x2="-32.5" y2="163"/>
					<line class="st7" x1="1.4" y1="135" x2="-29.6" y2="166"/>
					<line class="st7" x1="4.3" y1="138" x2="-26.6" y2="169"/>
				</g>
			</g>
		</g>
		<rect x="-25" y="139.6" class="st7" width="24.9" height="24.9"/>
	</g>
	<g class="st5">
		<g>
			<g>
				<defs>
					<rect id="SVGID_17_" x="346.7" y="138" width="24.9" height="24.9"/>
				</defs>
				<clipPath id="SVGID_18_">
					<use xlink:href="#SVGID_17_"  style="overflow:visible;"/>
				</clipPath>
				<g class="st15">
					<line class="st7" x1="379.1" y1="139.4" x2="348.2" y2="170.4"/>
					<line class="st7" x1="382.1" y1="142.4" x2="351.1" y2="173.3"/>
					<line class="st7" x1="385" y1="145.4" x2="354.1" y2="176.3"/>
					<line class="st7" x1="388" y1="148.4" x2="357.1" y2="179.3"/>
					<line class="st7" x1="361.2" y1="121.6" x2="330.3" y2="152.5"/>
					<line class="st7" x1="364.2" y1="124.6" x2="333.3" y2="155.5"/>
					<line class="st7" x1="367.2" y1="127.5" x2="336.2" y2="158.5"/>
					<line class="st7" x1="370.2" y1="130.5" x2="339.2" y2="161.4"/>
					<line class="st7" x1="373.1" y1="133.5" x2="342.2" y2="164.4"/>
					<line class="st7" x1="376.1" y1="136.5" x2="345.2" y2="167.4"/>
				</g>
			</g>
		</g>
		<rect x="346.7" y="138" class="st7" width="24.9" height="24.9"/>
	</g>
	<rect x="-25" y="-52.6" class="st16" width="396.6" height="340.6"/>
</g>
</svg>
