<svg width="152" height="72" viewBox="0 0 152 72" fill="none" xmlns="http://www.w3.org/2000/svg">
<path d="M8.27391 60.1195L7.91473 61.7565H7.18057C7.16702 61.4245 7.1384 61.1737 7.08193 61.0058C7.02847 60.8401 6.9366 60.7136 6.81688 60.624C6.70016 60.5412 6.53375 60.4998 6.32894 60.4998C6.16253 60.4998 5.99687 60.5382 5.81992 60.609C5.64296 60.6843 5.47128 60.798 5.30035 60.9523C5.10307 61.1391 4.91332 61.3733 4.73712 61.6601C4.55866 61.944 4.39903 62.2723 4.25897 62.6466C4.14677 62.9515 4.04136 63.2911 3.94723 63.6812C3.8501 64.0637 3.7876 64.4168 3.74242 64.7384C3.70402 65.0637 3.6867 65.3475 3.6867 65.6005C3.6867 65.9123 3.71606 66.1713 3.77329 66.3739C3.83127 66.5802 3.93443 66.7398 4.07524 66.8543C4.21906 66.9635 4.41785 67.0222 4.66935 67.0222C4.95097 67.0222 5.19644 66.971 5.39147 66.8791C5.59101 66.7827 5.75968 66.648 5.90802 66.468C6.05334 66.288 6.19114 66.0395 6.32894 65.7278H7.06386L6.70393 67.3806C6.34174 67.483 5.98332 67.5606 5.62489 67.6058C5.2627 67.6547 4.87943 67.6758 4.47207 67.6758C3.6754 67.6758 3.06473 67.4574 2.63929 67.0222C2.21536 66.5862 2 65.9635 2 65.1412C2 64.8957 2.02334 64.6104 2.06777 64.2821C2.14006 63.7843 2.25978 63.3084 2.41565 62.8559C2.59034 62.3378 2.82076 61.8913 3.09033 61.5118C3.36442 61.1278 3.67239 60.8176 4.01274 60.5713C4.35008 60.3274 4.71829 60.1466 5.11738 60.0254C5.51571 59.9034 5.93889 59.8454 6.38842 59.8454C6.73631 59.8454 7.0616 59.8725 7.37032 59.914C7.67905 59.9622 7.98024 60.0314 8.27391 60.1195Z" fill="#8D287B"/>
<path d="M8.27391 60.1195L7.91473 61.7565H7.18057C7.16702 61.4245 7.1384 61.1737 7.08193 61.0058C7.02847 60.8401 6.9366 60.7136 6.81688 60.624C6.70016 60.5412 6.53375 60.4998 6.32894 60.4998C6.16253 60.4998 5.99687 60.5382 5.81992 60.609C5.64296 60.6843 5.47128 60.798 5.30035 60.9523C5.10307 61.1391 4.91332 61.3733 4.73712 61.6601C4.55866 61.944 4.39903 62.2723 4.25897 62.6466C4.14677 62.9515 4.04136 63.2911 3.94723 63.6812C3.8501 64.0637 3.7876 64.4168 3.74242 64.7384C3.70402 65.0637 3.6867 65.3475 3.6867 65.6005C3.6867 65.9123 3.71606 66.1713 3.77329 66.3739C3.83127 66.5802 3.93443 66.7398 4.07524 66.8543C4.21906 66.9635 4.41785 67.0222 4.66935 67.0222C4.95097 67.0222 5.19644 66.971 5.39147 66.8791C5.59101 66.7827 5.75968 66.648 5.90802 66.468C6.05334 66.288 6.19114 66.0395 6.32894 65.7278H7.06386L6.70393 67.3806C6.34174 67.483 5.98332 67.5606 5.62489 67.6058C5.2627 67.6547 4.87943 67.6758 4.47207 67.6758C3.6754 67.6758 3.06473 67.4574 2.63929 67.0222C2.21536 66.5862 2 65.9635 2 65.1412C2 64.8957 2.02334 64.6104 2.06777 64.2821C2.14006 63.7843 2.25978 63.3084 2.41565 62.8559C2.59034 62.3378 2.82076 61.8913 3.09033 61.5118C3.36442 61.1278 3.67239 60.8176 4.01274 60.5713C4.35008 60.3274 4.71829 60.1466 5.11738 60.0254C5.51571 59.9034 5.93889 59.8454 6.38842 59.8454C6.73631 59.8454 7.0616 59.8725 7.37032 59.914C7.67905 59.9622 7.98024 60.0314 8.27391 60.1195Z" stroke="white" stroke-width="2.66667" stroke-miterlimit="10"/>
<path d="M11.7312 64.1003C11.7583 63.9791 11.7809 63.8458 11.7945 63.7058C11.8148 63.5529 11.8246 63.4091 11.8246 63.269C11.8246 63.0206 11.7764 62.8368 11.683 62.7118C11.5881 62.5853 11.433 62.5206 11.2229 62.5206C10.8751 62.5206 10.5663 62.693 10.2968 63.0431C10.0287 63.3948 9.81334 63.8616 9.64918 64.4542C9.48805 65.0423 9.39995 65.5754 9.39995 66.0393C9.39995 66.3126 9.44437 66.5167 9.51967 66.6537C9.60325 66.7855 9.72599 66.854 9.89541 66.854C10.1394 66.854 10.3954 66.7343 10.6469 66.4918C10.9059 66.2516 11.1145 65.9693 11.2674 65.6432C11.4232 65.3164 11.5633 64.8744 11.6853 64.3082L11.7312 64.1003ZM12.5791 62.3376L13.0828 61.934L13.7086 62.0236L12.8456 65.9324C12.7997 66.1296 12.7696 66.2923 12.7477 66.409C12.7319 66.5317 12.7169 66.6281 12.7169 66.714C12.7169 66.8819 12.7575 66.9994 12.8411 67.0769C12.9217 67.1515 13.0693 67.1989 13.2801 67.2155L13.2153 67.5859H11.0671L11.369 66.4399L11.2945 66.4158C11.0415 66.7448 10.8058 66.9994 10.5897 67.1816C10.3683 67.3608 10.1559 67.4918 9.94586 67.5633C9.72599 67.6432 9.49106 67.6755 9.20793 67.6755C8.9489 67.6755 8.72301 67.6138 8.51819 67.4918C8.32543 67.3691 8.16956 67.171 8.04984 66.9067C7.93463 66.6402 7.87891 66.3021 7.87891 65.8887C7.87891 65.4949 7.92409 65.0988 8.01595 64.7035C8.1048 64.3021 8.24335 63.9256 8.4188 63.583C8.60102 63.2329 8.82692 62.94 9.0995 62.69C9.37133 62.4483 9.68081 62.2623 10.0287 62.1298C10.3736 62.0003 10.7493 61.934 11.1529 61.934C11.7116 61.934 12.186 62.0695 12.5791 62.3376Z" fill="#8D287B"/>
<path d="M11.7312 64.1003C11.7583 63.9791 11.7809 63.8458 11.7945 63.7058C11.8148 63.5529 11.8246 63.4091 11.8246 63.269C11.8246 63.0206 11.7764 62.8368 11.683 62.7118C11.5881 62.5853 11.433 62.5206 11.2229 62.5206C10.8751 62.5206 10.5663 62.693 10.2968 63.0431C10.0287 63.3948 9.81334 63.8616 9.64918 64.4542C9.48805 65.0423 9.39995 65.5754 9.39995 66.0393C9.39995 66.3126 9.44437 66.5167 9.51967 66.6537C9.60325 66.7855 9.72599 66.854 9.89541 66.854C10.1394 66.854 10.3954 66.7343 10.6469 66.4918C10.9059 66.2516 11.1145 65.9693 11.2674 65.6432C11.4232 65.3164 11.5633 64.8744 11.6853 64.3082L11.7312 64.1003ZM12.5791 62.3376L13.0828 61.934L13.7086 62.0236L12.8456 65.9324C12.7997 66.1296 12.7696 66.2923 12.7477 66.409C12.7319 66.5317 12.7169 66.6281 12.7169 66.714C12.7169 66.8819 12.7575 66.9994 12.8411 67.0769C12.9217 67.1515 13.0693 67.1989 13.2801 67.2155L13.2153 67.5859H11.0671L11.369 66.4399L11.2945 66.4158C11.0415 66.7448 10.8058 66.9994 10.5897 67.1816C10.3683 67.3608 10.1559 67.4918 9.94586 67.5633C9.72599 67.6432 9.49106 67.6755 9.20793 67.6755C8.9489 67.6755 8.72301 67.6138 8.51819 67.4918C8.32543 67.3691 8.16956 67.171 8.04984 66.9067C7.93463 66.6402 7.87891 66.3021 7.87891 65.8887C7.87891 65.4949 7.92409 65.0988 8.01595 64.7035C8.1048 64.3021 8.24335 63.9256 8.4188 63.583C8.60102 63.2329 8.82692 62.94 9.0995 62.69C9.37133 62.4483 9.68081 62.2623 10.0287 62.1298C10.3736 62.0003 10.7493 61.934 11.1529 61.934C11.7116 61.934 12.186 62.0695 12.5791 62.3376V62.3376Z" stroke="white" stroke-width="2.66667" stroke-miterlimit="10"/>
<path d="M18.5491 62.7723C18.2103 62.7723 17.9301 62.9402 17.6892 63.2693C17.4482 63.6036 17.1214 64.3378 16.7005 65.4725C16.373 66.3445 16.0462 66.9341 15.7216 67.233C15.3963 67.5252 15.0048 67.6758 14.5296 67.6758C14.1592 67.6758 13.8331 67.6351 13.5605 67.5538L13.8956 66.1178H14.4385C14.4385 66.538 14.5424 66.7526 14.7518 66.7526C15.1765 66.7526 15.5951 66.1962 16.016 65.0802C16.5552 63.6872 17.0092 62.8295 17.3872 62.508C17.76 62.1872 18.1832 62.0238 18.656 62.0238H20.537L19.6598 65.9846C19.5762 66.352 19.534 66.6208 19.534 66.7857C19.534 66.9341 19.5762 67.0425 19.6583 67.1005C19.7358 67.157 19.8789 67.1991 20.0784 67.215L19.9933 67.5862H17.7472L18.7697 62.7723H18.5491Z" fill="#8D287B"/>
<path d="M18.5491 62.7723C18.2103 62.7723 17.9301 62.9402 17.6892 63.2693C17.4482 63.6036 17.1214 64.3378 16.7005 65.4725C16.373 66.3445 16.0462 66.9341 15.7216 67.233C15.3963 67.5252 15.0048 67.6758 14.5296 67.6758C14.1592 67.6758 13.8331 67.6351 13.5605 67.5538L13.8956 66.1178H14.4385C14.4385 66.538 14.5424 66.7526 14.7518 66.7526C15.1765 66.7526 15.5951 66.1962 16.016 65.0802C16.5552 63.6872 17.0092 62.8295 17.3872 62.508C17.76 62.1872 18.1832 62.0238 18.656 62.0238H20.537L19.6598 65.9846C19.5762 66.352 19.534 66.6208 19.534 66.7857C19.534 66.9341 19.5762 67.0425 19.6583 67.1005C19.7358 67.157 19.8789 67.1991 20.0784 67.215L19.9933 67.5862H17.7472L18.7697 62.7723H18.5491Z" stroke="white" stroke-width="2.66667" stroke-miterlimit="10"/>
<path d="M22.7741 66.0446C22.7741 66.4 22.8268 66.6575 22.9428 66.8314C23.0572 67.0069 23.2387 67.0957 23.4834 67.0957C23.6204 67.0957 23.753 67.0641 23.875 67.0069C24.0045 66.9474 24.1227 66.8518 24.2515 66.7102C24.3704 66.5701 24.4804 66.3932 24.5783 66.1741C24.6709 65.964 24.7657 65.6974 24.8538 65.3827C24.9419 65.0634 25.0112 64.7577 25.0564 64.4542C25.1084 64.15 25.1302 63.8707 25.1302 63.6056C25.1302 63.2329 25.0745 62.9558 24.9547 62.7841C24.8433 62.6087 24.6709 62.5206 24.4307 62.5206C24.1189 62.5206 23.8441 62.6712 23.6159 62.9746C23.3893 63.2796 23.1897 63.7532 23.0233 64.3857C22.8569 65.025 22.7741 65.5777 22.7741 66.0446ZM23.3456 67.6755C22.9405 67.6755 22.5776 67.6033 22.2703 67.4572C21.9556 67.3066 21.7048 67.0844 21.5301 66.7825C21.3585 66.4828 21.2666 66.1168 21.2666 65.6794C21.2666 65.5182 21.2771 65.3307 21.3043 65.1297C21.3299 64.8782 21.3833 64.6192 21.4518 64.3503C21.5429 64.0446 21.6499 63.7705 21.7794 63.5326C21.927 63.2653 22.0911 63.0326 22.2726 62.8338C22.4623 62.6403 22.6634 62.4761 22.8833 62.3474C23.0986 62.2209 23.3388 62.1192 23.5933 62.0545C23.9021 61.9724 24.2206 61.934 24.5617 61.934C25.0248 61.934 25.4133 62.0221 25.7251 62.19C26.0406 62.3632 26.2695 62.5966 26.4223 62.9001C26.5744 63.2058 26.652 63.5574 26.652 63.9543C26.652 64.449 26.5676 64.9407 26.4035 65.4369C26.2378 65.9354 26.0134 66.3518 25.722 66.6884C25.4329 67.0265 25.0873 67.2772 24.6927 67.4391C24.2981 67.5942 23.8531 67.6755 23.3456 67.6755Z" fill="#8D287B"/>
<path d="M22.7741 66.0446C22.7741 66.4 22.8268 66.6575 22.9428 66.8314C23.0572 67.0069 23.2387 67.0957 23.4834 67.0957C23.6204 67.0957 23.753 67.0641 23.875 67.0069C24.0045 66.9474 24.1227 66.8518 24.2515 66.7102C24.3704 66.5701 24.4804 66.3932 24.5783 66.1741C24.6709 65.964 24.7657 65.6974 24.8538 65.3827C24.9419 65.0634 25.0112 64.7577 25.0564 64.4542C25.1084 64.15 25.1302 63.8707 25.1302 63.6056C25.1302 63.2329 25.0745 62.9558 24.9547 62.7841C24.8433 62.6087 24.6709 62.5206 24.4307 62.5206C24.1189 62.5206 23.8441 62.6712 23.6159 62.9746C23.3893 63.2796 23.1897 63.7532 23.0233 64.3857C22.8569 65.025 22.7741 65.5777 22.7741 66.0446ZM23.3456 67.6755C22.9405 67.6755 22.5776 67.6033 22.2703 67.4572C21.9556 67.3066 21.7048 67.0844 21.5301 66.7825C21.3585 66.4828 21.2666 66.1168 21.2666 65.6794C21.2666 65.5182 21.2771 65.3307 21.3043 65.1297C21.3299 64.8782 21.3833 64.6192 21.4518 64.3503C21.5429 64.0446 21.6499 63.7705 21.7794 63.5326C21.927 63.2653 22.0911 63.0326 22.2726 62.8338C22.4623 62.6403 22.6634 62.4761 22.8833 62.3474C23.0986 62.2209 23.3388 62.1192 23.5933 62.0545C23.9021 61.9724 24.2206 61.934 24.5617 61.934C25.0248 61.934 25.4133 62.0221 25.7251 62.19C26.0406 62.3632 26.2695 62.5966 26.4223 62.9001C26.5744 63.2058 26.652 63.5574 26.652 63.9543C26.652 64.449 26.5676 64.9407 26.4035 65.4369C26.2378 65.9354 26.0134 66.3518 25.722 66.6884C25.4329 67.0265 25.0873 67.2772 24.6927 67.4391C24.2981 67.5942 23.8531 67.6755 23.3456 67.6755Z" stroke="white" stroke-width="2.66667" stroke-miterlimit="10"/>
<path d="M31.2127 65.0858H29.4966L28.9793 67.5857H27.3867L28.2707 63.6287C28.3483 63.2613 28.3889 62.991 28.3889 62.8268C28.3889 62.683 28.3483 62.5738 28.2707 62.5143C28.1871 62.4526 28.0516 62.4157 27.8513 62.3961L27.9311 62.0241L29.468 61.9676H30.1374L29.6442 64.3621H31.3685L31.8806 62.0241H33.4709L32.5891 65.9841C32.5093 66.3523 32.4709 66.6211 32.4709 66.786C32.4709 66.9344 32.5093 67.0428 32.5876 67.1008C32.6674 67.1572 32.8097 67.1994 33.0116 67.2152L32.9295 67.5857H30.6728L31.2127 65.0858Z" fill="#8D287B"/>
<path d="M31.2127 65.0858H29.4966L28.9793 67.5857H27.3867L28.2707 63.6287C28.3483 63.2613 28.3889 62.991 28.3889 62.8268C28.3889 62.683 28.3483 62.5738 28.2707 62.5143C28.1871 62.4526 28.0516 62.4157 27.8513 62.3961L27.9311 62.0241L29.468 61.9676H30.1374L29.6442 64.3621H31.3685L31.8806 62.0241H33.4709L32.5891 65.9841C32.5093 66.3523 32.4709 66.6211 32.4709 66.786C32.4709 66.9344 32.5093 67.0428 32.5876 67.1008C32.6674 67.1572 32.8097 67.1994 33.0116 67.2152L32.9295 67.5857H30.6728L31.2127 65.0858Z" stroke="white" stroke-width="2.66667" stroke-miterlimit="10"/>
<path d="M37.1225 62.0236H39.4409L38.7422 65.074C38.5968 65.7118 38.5246 66.1357 38.5246 66.3593C38.5246 66.6914 38.6624 66.8608 38.9357 66.8608C39.1578 66.8608 39.4409 66.6816 39.7783 66.3337C40.1209 65.9783 40.3536 65.5032 40.4748 64.8985L41.0922 62.0236H42.6969L41.8196 65.9843C41.7421 66.3518 41.6977 66.6206 41.6977 66.7855C41.6977 67.0423 41.9077 67.1891 42.3354 67.2155L41.3264 69.677H39.8837L41.0094 67.6116C40.4838 67.6116 40.2225 67.4474 40.2225 67.1183C40.2225 66.9565 40.2647 66.7306 40.3475 66.4399L40.2768 66.4158C39.9266 66.854 39.59 67.1711 39.276 67.3744C38.959 67.5754 38.5863 67.6756 38.1707 67.6756C37.7926 67.6756 37.4937 67.5694 37.2731 67.3533C37.0517 67.1485 36.9463 66.8465 36.9463 66.4678C36.9463 66.2283 36.9809 65.9354 37.0547 65.6003L37.5193 63.5251C37.5818 63.2322 37.6112 63.0206 37.6112 62.885C37.6112 62.6998 37.566 62.5763 37.4613 62.5138C37.3597 62.4498 37.2279 62.4107 37.0517 62.3956L37.1225 62.0236Z" fill="#8D287B"/>
<path d="M37.1225 62.0236H39.4409L38.7422 65.074C38.5968 65.7118 38.5246 66.1357 38.5246 66.3593C38.5246 66.6914 38.6624 66.8608 38.9357 66.8608C39.1578 66.8608 39.4409 66.6816 39.7783 66.3337C40.1209 65.9783 40.3536 65.5032 40.4748 64.8985L41.0922 62.0236H42.6969L41.8196 65.9843C41.7421 66.3518 41.6977 66.6206 41.6977 66.7855C41.6977 67.0423 41.9077 67.1891 42.3354 67.2155L41.3264 69.677H39.8837L41.0094 67.6116C40.4838 67.6116 40.2225 67.4474 40.2225 67.1183C40.2225 66.9565 40.2647 66.7306 40.3475 66.4399L40.2768 66.4158C39.9266 66.854 39.59 67.1711 39.276 67.3744C38.959 67.5754 38.5863 67.6756 38.1707 67.6756C37.7926 67.6756 37.4937 67.5694 37.2731 67.3533C37.0517 67.1485 36.9463 66.8465 36.9463 66.4678C36.9463 66.2283 36.9809 65.9354 37.0547 65.6003L37.5193 63.5251C37.5818 63.2322 37.6112 63.0206 37.6112 62.885C37.6112 62.6998 37.566 62.5763 37.4613 62.5138C37.3597 62.4498 37.2279 62.4107 37.0517 62.3956L37.1225 62.0236Z" stroke="white" stroke-width="2.66667" stroke-miterlimit="10"/>
<path d="M45.111 64.5004C46.7593 64.4854 47.583 64.078 47.583 63.2851C47.583 63.0682 47.5107 62.8845 47.3647 62.7377C47.2193 62.5923 47.0273 62.5208 46.7894 62.5208C46.0605 62.5208 45.4995 63.1782 45.111 64.5004ZM45.0146 65.0403C44.9476 65.3227 44.9137 65.6036 44.9137 65.9002C44.9137 66.6284 45.2081 66.9988 45.8045 66.9988C46.193 66.9988 46.5002 66.91 46.7239 66.7345C46.9468 66.5553 47.0597 66.3023 47.0597 65.9755C47.0597 65.3475 46.6885 65.0343 45.9506 65.0343H45.6689L45.0146 65.0403ZM47.5582 64.6736V64.7436C48.2442 64.8988 48.5853 65.2753 48.5853 65.8814C48.5853 66.471 48.336 66.9183 47.8323 67.218C47.3285 67.5214 46.6335 67.6758 45.757 67.6758C45.0281 67.6758 44.4514 67.5049 44.044 67.157C43.6306 66.8144 43.4258 66.3242 43.4258 65.6849C43.4258 65.1239 43.5545 64.5223 43.8121 63.889C44.0696 63.255 44.4694 62.7685 45.0176 62.4357C45.5703 62.0999 46.2367 61.9342 47.0198 61.9342C47.6139 61.9342 48.0921 62.0532 48.4377 62.2829C48.7825 62.5133 48.9565 62.8213 48.9565 63.2106C48.9565 63.9221 48.4919 64.4108 47.5582 64.6736Z" fill="#8D287B"/>
<path d="M45.111 64.5004C46.7593 64.4854 47.583 64.078 47.583 63.2851C47.583 63.0682 47.5107 62.8845 47.3647 62.7377C47.2193 62.5923 47.0273 62.5208 46.7894 62.5208C46.0605 62.5208 45.4995 63.1782 45.111 64.5004ZM45.0146 65.0403C44.9476 65.3227 44.9137 65.6036 44.9137 65.9002C44.9137 66.6284 45.2081 66.9988 45.8045 66.9988C46.193 66.9988 46.5002 66.91 46.7239 66.7345C46.9468 66.5553 47.0597 66.3023 47.0597 65.9755C47.0597 65.3475 46.6885 65.0343 45.9506 65.0343H45.6689L45.0146 65.0403ZM47.5582 64.6736V64.7436C48.2442 64.8988 48.5853 65.2753 48.5853 65.8814C48.5853 66.471 48.336 66.9183 47.8323 67.218C47.3285 67.5214 46.6335 67.6758 45.757 67.6758C45.0281 67.6758 44.4514 67.5049 44.044 67.157C43.6306 66.8144 43.4258 66.3242 43.4258 65.6849C43.4258 65.1239 43.5545 64.5223 43.8121 63.889C44.0696 63.255 44.4694 62.7685 45.0176 62.4357C45.5703 62.0999 46.2367 61.9342 47.0198 61.9342C47.6139 61.9342 48.0921 62.0532 48.4377 62.2829C48.7825 62.5133 48.9565 62.8213 48.9565 63.2106C48.9565 63.9221 48.4919 64.4108 47.5582 64.6736Z" stroke="white" stroke-width="2.66667" stroke-miterlimit="10"/>
<path d="M51.4519 64.5378C52.1431 64.5183 52.665 64.3857 53.0339 64.1433C53.3969 63.8985 53.5738 63.5507 53.5738 63.1026C53.5738 62.9121 53.5324 62.7653 53.4466 62.6682C53.3577 62.5695 53.2357 62.5206 53.0776 62.5206C52.7335 62.5206 52.4195 62.69 52.1431 63.0326C51.8623 63.3782 51.6311 63.8797 51.4519 64.5378ZM54.4255 66.4241C54.049 66.8465 53.6408 67.165 53.2026 67.3691C52.7689 67.5754 52.299 67.6755 51.7922 67.6755C51.3533 67.6755 50.982 67.6033 50.6763 67.4489C50.3646 67.2945 50.1387 67.0679 49.9866 66.7644C49.8307 66.464 49.7539 66.1078 49.7539 65.6846C49.7539 65.4949 49.7772 65.2441 49.8307 64.9407C49.8992 64.5295 50.0069 64.1659 50.156 63.8428C50.3405 63.4475 50.5747 63.1049 50.8698 62.8255C51.168 62.5371 51.5174 62.321 51.9105 62.1674C52.308 62.0131 52.744 61.934 53.2154 61.934C53.7794 61.934 54.2048 62.0356 54.4932 62.2397C54.7869 62.4483 54.9315 62.7593 54.9315 63.1764C54.9315 63.4603 54.8788 63.711 54.7598 63.9256C54.6491 64.1433 54.4563 64.3375 54.192 64.5122C53.9292 64.6884 53.5558 64.8353 53.0693 64.9407C52.5844 65.0514 52.0053 65.1139 51.3171 65.1267C51.2704 65.3473 51.2478 65.5754 51.2478 65.8096C51.2478 65.9474 51.2652 66.083 51.287 66.208C51.3141 66.3299 51.3615 66.4399 51.4263 66.5378C51.4903 66.6357 51.5822 66.714 51.6921 66.7682C51.8081 66.8314 51.9504 66.8608 52.1273 66.8608C52.4519 66.8608 52.7538 66.793 53.0151 66.6575C53.2832 66.5287 53.5949 66.2923 53.9541 65.9497L54.4255 66.4241Z" fill="#8D287B"/>
<path d="M51.4519 64.5378C52.1431 64.5183 52.665 64.3857 53.0339 64.1433C53.3969 63.8985 53.5738 63.5507 53.5738 63.1026C53.5738 62.9121 53.5324 62.7653 53.4466 62.6682C53.3577 62.5695 53.2357 62.5206 53.0776 62.5206C52.7335 62.5206 52.4195 62.69 52.1431 63.0326C51.8623 63.3782 51.6311 63.8797 51.4519 64.5378ZM54.4255 66.4241C54.049 66.8465 53.6408 67.165 53.2026 67.3691C52.7689 67.5754 52.299 67.6755 51.7922 67.6755C51.3533 67.6755 50.982 67.6033 50.6763 67.4489C50.3646 67.2945 50.1387 67.0679 49.9866 66.7644C49.8307 66.464 49.7539 66.1078 49.7539 65.6846C49.7539 65.4949 49.7772 65.2441 49.8307 64.9407C49.8992 64.5295 50.0069 64.1659 50.156 63.8428C50.3405 63.4475 50.5747 63.1049 50.8698 62.8255C51.168 62.5371 51.5174 62.321 51.9105 62.1674C52.308 62.0131 52.744 61.934 53.2154 61.934C53.7794 61.934 54.2048 62.0356 54.4932 62.2397C54.7869 62.4483 54.9315 62.7593 54.9315 63.1764C54.9315 63.4603 54.8788 63.711 54.7598 63.9256C54.6491 64.1433 54.4563 64.3375 54.192 64.5122C53.9292 64.6884 53.5558 64.8353 53.0693 64.9407C52.5844 65.0514 52.0053 65.1139 51.3171 65.1267C51.2704 65.3473 51.2478 65.5754 51.2478 65.8096C51.2478 65.9474 51.2652 66.083 51.287 66.208C51.3141 66.3299 51.3615 66.4399 51.4263 66.5378C51.4903 66.6357 51.5822 66.714 51.6921 66.7682C51.8081 66.8314 51.9504 66.8608 52.1273 66.8608C52.4519 66.8608 52.7538 66.793 53.0151 66.6575C53.2832 66.5287 53.5949 66.2923 53.9541 65.9497L54.4255 66.4241Z" stroke="white" stroke-width="2.66667" stroke-miterlimit="10"/>
<path d="M61.1371 63.0971C61.4473 62.6898 61.7689 62.4014 62.0904 62.2146C62.4029 62.0294 62.7636 61.9338 63.1559 61.9338C63.5376 61.9338 63.8411 62.0414 64.0512 62.2621C64.2673 62.4759 64.3787 62.7688 64.3787 63.1476C64.3787 63.3915 64.3373 63.6807 64.2643 64.018L63.805 66.0903C63.7696 66.2604 63.744 66.3945 63.7266 66.4901C63.7138 66.5797 63.7078 66.6603 63.7078 66.7303C63.7078 66.899 63.753 67.0142 63.8411 67.0804C63.9217 67.149 64.0647 67.1941 64.2696 67.2152L64.2033 67.5857H61.8781L62.6551 64.2191C62.6905 64.0436 62.7244 63.8983 62.7432 63.7854C62.7636 63.6739 62.7794 63.5813 62.7869 63.4939C62.7997 63.4119 62.8042 63.3358 62.8042 63.2696C62.8042 63.1024 62.7688 62.9744 62.6988 62.8885C62.628 62.7967 62.5279 62.759 62.3893 62.759C62.2771 62.759 62.1484 62.8012 62 62.8976C61.863 62.994 61.6988 63.1355 61.5302 63.3208C61.3585 63.5075 61.2252 63.7078 61.1153 63.9179C61.0106 64.1272 60.9278 64.3975 60.866 64.7123L60.2448 67.5857H58.6327L59.4421 64.0715C59.4828 63.9224 59.5061 63.8072 59.5212 63.7146C59.537 63.625 59.5491 63.5474 59.5536 63.4827C59.5566 63.4194 59.5619 63.3614 59.5619 63.3117C59.5619 63.1129 59.525 62.9744 59.4632 62.8885C59.3932 62.7967 59.2863 62.759 59.1402 62.759C58.9647 62.759 58.7554 62.8675 58.5077 63.0971C58.266 63.3238 58.074 63.5572 57.9392 63.7944C57.8036 64.0323 57.7005 64.3373 57.6244 64.7123L57.007 67.5857H55.4023L56.2743 63.6287C56.2992 63.5414 56.3187 63.4119 56.3526 63.244C56.3857 63.0783 56.4016 62.9397 56.4016 62.8268C56.4016 62.6709 56.3549 62.5633 56.272 62.5083C56.1794 62.448 56.0469 62.4104 55.8534 62.3953L55.9422 62.0234L57.4821 61.9676H58.0717L57.7524 63.1762L57.8209 63.1943C58.077 62.8765 58.3209 62.6235 58.5363 62.4443C58.7554 62.2636 58.976 62.1333 59.1906 62.0542C59.4113 61.9722 59.6469 61.9338 59.9135 61.9338C60.2862 61.9338 60.5829 62.0392 60.793 62.2395C61.0106 62.4503 61.1213 62.7372 61.1371 63.0971Z" fill="#8D287B"/>
<path d="M61.1371 63.0971C61.4473 62.6898 61.7689 62.4014 62.0904 62.2146C62.4029 62.0294 62.7636 61.9338 63.1559 61.9338C63.5376 61.9338 63.8411 62.0414 64.0512 62.2621C64.2673 62.4759 64.3787 62.7688 64.3787 63.1476C64.3787 63.3915 64.3373 63.6807 64.2643 64.018L63.805 66.0903C63.7696 66.2604 63.744 66.3945 63.7266 66.4901C63.7138 66.5797 63.7078 66.6603 63.7078 66.7303C63.7078 66.899 63.753 67.0142 63.8411 67.0804C63.9217 67.149 64.0647 67.1941 64.2696 67.2152L64.2033 67.5857H61.8781L62.6551 64.2191C62.6905 64.0436 62.7244 63.8983 62.7432 63.7854C62.7636 63.6739 62.7794 63.5813 62.7869 63.4939C62.7997 63.4119 62.8042 63.3358 62.8042 63.2696C62.8042 63.1024 62.7688 62.9744 62.6988 62.8885C62.628 62.7967 62.5279 62.759 62.3893 62.759C62.2771 62.759 62.1484 62.8012 62 62.8976C61.863 62.994 61.6988 63.1355 61.5302 63.3208C61.3585 63.5075 61.2252 63.7078 61.1153 63.9179C61.0106 64.1272 60.9278 64.3975 60.866 64.7123L60.2448 67.5857H58.6327L59.4421 64.0715C59.4828 63.9224 59.5061 63.8072 59.5212 63.7146C59.537 63.625 59.5491 63.5474 59.5536 63.4827C59.5566 63.4194 59.5619 63.3614 59.5619 63.3117C59.5619 63.1129 59.525 62.9744 59.4632 62.8885C59.3932 62.7967 59.2863 62.759 59.1402 62.759C58.9647 62.759 58.7554 62.8675 58.5077 63.0971C58.266 63.3238 58.074 63.5572 57.9392 63.7944C57.8036 64.0323 57.7005 64.3373 57.6244 64.7123L57.007 67.5857H55.4023L56.2743 63.6287C56.2992 63.5414 56.3187 63.4119 56.3526 63.244C56.3857 63.0783 56.4016 62.9397 56.4016 62.8268C56.4016 62.6709 56.3549 62.5633 56.272 62.5083C56.1794 62.448 56.0469 62.4104 55.8534 62.3953L55.9422 62.0234L57.4821 61.9676H58.0717L57.7524 63.1762L57.8209 63.1943C58.077 62.8765 58.3209 62.6235 58.5363 62.4443C58.7554 62.2636 58.976 62.1333 59.1906 62.0542C59.4113 61.9722 59.6469 61.9338 59.9135 61.9338C60.2862 61.9338 60.5829 62.0392 60.793 62.2395C61.0106 62.4503 61.1213 62.7372 61.1371 63.0971Z" stroke="white" stroke-width="2.66667" stroke-miterlimit="10"/>
<path d="M66.9127 66.0446C66.9127 66.4 66.9715 66.6575 67.0852 66.8314C67.1996 67.0069 67.3818 67.0957 67.6281 67.0957C67.7636 67.0957 67.8976 67.0641 68.0204 67.0069C68.1476 66.9474 68.2726 66.8518 68.3878 66.7102C68.5136 66.5701 68.6228 66.3932 68.7184 66.1741C68.8163 65.964 68.9112 65.6974 68.9993 65.3827C69.0829 65.0634 69.1514 64.7577 69.1966 64.4542C69.2493 64.15 69.2749 63.8707 69.2749 63.6056C69.2749 63.2329 69.2161 62.9558 69.1032 62.7841C68.9865 62.6087 68.8103 62.5206 68.5761 62.5206C68.2591 62.5206 67.9842 62.6712 67.7583 62.9746C67.5294 63.2796 67.3299 63.7532 67.1635 64.3857C66.9941 65.025 66.9127 65.5777 66.9127 66.0446ZM67.491 67.6755C67.0844 67.6755 66.7177 67.6033 66.4052 67.4572C66.0935 67.3066 65.8525 67.0844 65.6756 66.7825C65.5001 66.4828 65.415 66.1168 65.415 65.6794C65.415 65.5182 65.4218 65.3307 65.4421 65.1297C65.4708 64.8782 65.5272 64.6192 65.6018 64.3503C65.6861 64.0446 65.7953 63.7705 65.9286 63.5326C66.0649 63.2653 66.2313 63.0326 66.4158 62.8338C66.601 62.6403 66.8051 62.4761 67.0272 62.3474C67.2433 62.2209 67.482 62.1192 67.7388 62.0545C68.0437 61.9724 68.363 61.934 68.7011 61.934C69.1679 61.934 69.5565 62.0221 69.8682 62.19C70.1837 62.3632 70.4119 62.5966 70.5655 62.9001C70.7199 63.2058 70.7936 63.5574 70.7936 63.9543C70.7936 64.449 70.7078 64.9407 70.5497 65.4369C70.3833 65.9354 70.1498 66.3518 69.8614 66.6884C69.5761 67.0265 69.2304 67.2772 68.8359 67.4391C68.4406 67.5942 67.9925 67.6755 67.491 67.6755Z" fill="#8D287B"/>
<path d="M66.9127 66.0446C66.9127 66.4 66.9715 66.6575 67.0852 66.8314C67.1996 67.0069 67.3818 67.0957 67.6281 67.0957C67.7636 67.0957 67.8976 67.0641 68.0204 67.0069C68.1476 66.9474 68.2726 66.8518 68.3878 66.7102C68.5136 66.5701 68.6228 66.3932 68.7184 66.1741C68.8163 65.964 68.9112 65.6974 68.9993 65.3827C69.0829 65.0634 69.1514 64.7577 69.1966 64.4542C69.2493 64.15 69.2749 63.8707 69.2749 63.6056C69.2749 63.2329 69.2161 62.9558 69.1032 62.7841C68.9865 62.6087 68.8103 62.5206 68.5761 62.5206C68.2591 62.5206 67.9842 62.6712 67.7583 62.9746C67.5294 63.2796 67.3299 63.7532 67.1635 64.3857C66.9941 65.025 66.9127 65.5777 66.9127 66.0446ZM67.491 67.6755C67.0844 67.6755 66.7177 67.6033 66.4052 67.4572C66.0935 67.3066 65.8525 67.0844 65.6756 66.7825C65.5001 66.4828 65.415 66.1168 65.415 65.6794C65.415 65.5182 65.4218 65.3307 65.4421 65.1297C65.4708 64.8782 65.5272 64.6192 65.6018 64.3503C65.6861 64.0446 65.7953 63.7705 65.9286 63.5326C66.0649 63.2653 66.2313 63.0326 66.4158 62.8338C66.601 62.6403 66.8051 62.4761 67.0272 62.3474C67.2433 62.2209 67.482 62.1192 67.7388 62.0545C68.0437 61.9724 68.363 61.934 68.7011 61.934C69.1679 61.934 69.5565 62.0221 69.8682 62.19C70.1837 62.3632 70.4119 62.5966 70.5655 62.9001C70.7199 63.2058 70.7936 63.5574 70.7936 63.9543C70.7936 64.449 70.7078 64.9407 70.5497 65.4369C70.3833 65.9354 70.1498 66.3518 69.8614 66.6884C69.5761 67.0265 69.2304 67.2772 68.8359 67.4391C68.4406 67.5942 67.9925 67.6755 67.491 67.6755Z" stroke="white" stroke-width="2.66667" stroke-miterlimit="10"/>
<path d="M73.2961 64.5004C74.9429 64.4854 75.7704 64.078 75.7704 63.2851C75.7704 63.0682 75.6959 62.8845 75.5528 62.7377C75.4037 62.5923 75.2102 62.5208 74.9722 62.5208C74.2411 62.5208 73.6778 63.1782 73.2961 64.5004ZM73.1974 65.0403C73.1327 65.3227 73.1048 65.6036 73.1048 65.9002C73.1048 66.6284 73.3947 66.9988 73.9896 66.9988C74.3766 66.9988 74.6831 66.91 74.9022 66.7345C75.1319 66.5553 75.241 66.3023 75.241 65.9755C75.241 65.3475 74.8728 65.0343 74.1319 65.0343H73.854L73.1974 65.0403ZM75.7418 64.6736V64.7436C76.4225 64.8988 76.7704 65.2753 76.7704 65.8814C76.7704 66.471 76.5181 66.9183 76.0144 67.218C75.5106 67.5214 74.8224 67.6758 73.9399 67.6758C73.2132 67.6758 72.6402 67.5049 72.2246 67.157C71.8157 66.8144 71.6094 66.3242 71.6094 65.6849C71.6094 65.1239 71.7411 64.5223 71.9972 63.889C72.2494 63.255 72.6545 62.7685 73.2027 62.4357C73.7509 62.0999 74.415 61.9342 75.2049 61.9342C75.7975 61.9342 76.2772 62.0532 76.6183 62.2829C76.9676 62.5133 77.1393 62.8213 77.1393 63.2106C77.1393 63.9221 76.6717 64.4108 75.7418 64.6736Z" fill="#8D287B"/>
<path d="M73.2961 64.5004C74.9429 64.4854 75.7704 64.078 75.7704 63.2851C75.7704 63.0682 75.6959 62.8845 75.5528 62.7377C75.4037 62.5923 75.2102 62.5208 74.9722 62.5208C74.2411 62.5208 73.6778 63.1782 73.2961 64.5004ZM73.1974 65.0403C73.1327 65.3227 73.1048 65.6036 73.1048 65.9002C73.1048 66.6284 73.3947 66.9988 73.9896 66.9988C74.3766 66.9988 74.6831 66.91 74.9022 66.7345C75.1319 66.5553 75.241 66.3023 75.241 65.9755C75.241 65.3475 74.8728 65.0343 74.1319 65.0343H73.854L73.1974 65.0403ZM75.7418 64.6736V64.7436C76.4225 64.8988 76.7704 65.2753 76.7704 65.8814C76.7704 66.471 76.5181 66.9183 76.0144 67.218C75.5106 67.5214 74.8224 67.6758 73.9399 67.6758C73.2132 67.6758 72.6402 67.5049 72.2246 67.157C71.8157 66.8144 71.6094 66.3242 71.6094 65.6849C71.6094 65.1239 71.7411 64.5223 71.9972 63.889C72.2494 63.255 72.6545 62.7685 73.2027 62.4357C73.7509 62.0999 74.415 61.9342 75.2049 61.9342C75.7975 61.9342 76.2772 62.0532 76.6183 62.2829C76.9677 62.5133 77.1393 62.8213 77.1393 63.2106C77.1393 63.9221 76.6717 64.4108 75.7418 64.6736V64.6736Z" stroke="white" stroke-width="2.66667" stroke-miterlimit="10"/>
<path d="M80.8578 62.0238H83.1792L82.4835 65.0742C82.3795 65.5079 82.3238 65.8061 82.2967 65.9718C82.2704 66.1359 82.2598 66.2654 82.2598 66.3596C82.2598 66.5327 82.299 66.6608 82.3667 66.7406C82.4345 66.8196 82.5407 66.861 82.6732 66.861C82.7485 66.861 82.8283 66.843 82.9119 66.8046C83 66.7684 83.0806 66.718 83.1702 66.6532C83.2575 66.5802 83.3584 66.483 83.4827 66.3596C83.6092 66.2361 83.7131 66.1081 83.808 65.9635C83.9036 65.8242 83.9797 65.6743 84.0437 65.5117C84.1062 65.3536 84.1589 65.151 84.2131 64.8988L84.8305 62.0238H86.4352L85.5549 65.9846C85.5376 66.0712 85.5112 66.2007 85.4819 66.3686C85.4502 66.5327 85.4322 66.6713 85.4322 66.7857C85.4322 66.9461 85.4773 67.0485 85.5662 67.1095C85.6513 67.1653 85.7891 67.2006 85.9758 67.2157L85.8907 67.5862H83.7846L84.079 66.4401L84.0165 66.416C83.6709 66.852 83.3328 67.1653 83.0106 67.3716C82.689 67.5756 82.3238 67.6758 81.9044 67.6758C81.5324 67.6758 81.2343 67.5696 81.0121 67.3535C80.7945 67.1389 80.6846 66.843 80.6846 66.468C80.6846 66.224 80.72 65.9319 80.7945 65.6005L81.2561 63.5253C81.2885 63.3514 81.3186 63.2196 81.3321 63.127C81.3412 63.0313 81.3495 62.9515 81.3495 62.8853C81.3495 62.7181 81.3088 62.6036 81.229 62.5359C81.1462 62.4711 80.9993 62.4222 80.7862 62.3958L80.8578 62.0238Z" fill="#8D287B"/>
<path d="M80.8578 62.0238H83.1792L82.4835 65.0742C82.3795 65.5079 82.3238 65.8061 82.2967 65.9718C82.2704 66.1359 82.2598 66.2654 82.2598 66.3596C82.2598 66.5327 82.299 66.6608 82.3667 66.7406C82.4345 66.8196 82.5407 66.861 82.6732 66.861C82.7485 66.861 82.8283 66.843 82.9119 66.8046C83 66.7684 83.0806 66.718 83.1702 66.6532C83.2575 66.5802 83.3584 66.483 83.4827 66.3596C83.6092 66.2361 83.7131 66.1081 83.808 65.9635C83.9036 65.8242 83.9797 65.6743 84.0437 65.5117C84.1062 65.3536 84.1589 65.151 84.2131 64.8988L84.8305 62.0238H86.4352L85.5549 65.9846C85.5376 66.0712 85.5112 66.2007 85.4819 66.3686C85.4502 66.5327 85.4322 66.6713 85.4322 66.7857C85.4322 66.9461 85.4773 67.0485 85.5662 67.1095C85.6513 67.1653 85.7891 67.2006 85.9758 67.2157L85.8907 67.5862H83.7846L84.079 66.4401L84.0165 66.416C83.6709 66.852 83.3328 67.1653 83.0106 67.3716C82.689 67.5756 82.3238 67.6758 81.9044 67.6758C81.5324 67.6758 81.2343 67.5696 81.0121 67.3535C80.7945 67.1389 80.6846 66.843 80.6846 66.468C80.6846 66.224 80.72 65.9319 80.7945 65.6005L81.2561 63.5253C81.2885 63.3514 81.3186 63.2196 81.3321 63.127C81.3412 63.0313 81.3495 62.9515 81.3495 62.8853C81.3495 62.7181 81.3088 62.6036 81.229 62.5359C81.1462 62.4711 80.9993 62.4222 80.7862 62.3958L80.8578 62.0238Z" stroke="white" stroke-width="2.66667" stroke-miterlimit="10"/>
<path d="M95.1917 67.5857H92.874L93.5757 64.5376C93.6766 64.1039 93.7346 63.8072 93.7587 63.6415C93.779 63.4751 93.7896 63.3471 93.7896 63.256C93.7896 63.0843 93.7504 62.9601 93.6842 62.8788C93.6126 62.7959 93.5117 62.759 93.3769 62.759C93.2572 62.759 93.1277 62.7989 92.9839 62.89C92.8416 62.9804 92.6857 63.1205 92.5088 63.3117C92.3303 63.5007 92.1925 63.7063 92.0886 63.9134C91.9847 64.1272 91.8988 64.3975 91.8356 64.7123L91.2204 67.5857H89.6143L90.4915 63.6287C90.5148 63.5414 90.5329 63.4119 90.5668 63.244C90.5977 63.0783 90.6165 62.9397 90.6165 62.8268C90.6165 62.6709 90.5706 62.5633 90.4862 62.5083C90.3959 62.448 90.2588 62.4104 90.0736 62.3953L90.1564 62.0234L91.6933 61.9676H92.2836L91.9643 63.1769L92.0344 63.1943C92.2911 62.8818 92.5276 62.6303 92.7482 62.4503C92.9718 62.2688 93.1895 62.1356 93.4048 62.0557C93.6247 61.9752 93.8671 61.9338 94.1367 61.9338C94.514 61.9338 94.8204 62.0414 95.0388 62.2621C95.2609 62.4759 95.3709 62.7696 95.3709 63.1476C95.3709 63.3915 95.3325 63.6807 95.2542 64.018L94.8016 66.0903C94.7624 66.2604 94.7323 66.3945 94.7271 66.4901C94.7097 66.5797 94.7015 66.6603 94.7015 66.7303C94.7015 66.899 94.7459 67.0142 94.831 67.0804C94.9115 67.149 95.0576 67.1941 95.2647 67.2152L95.1917 67.5857Z" fill="#8D287B"/>
<path d="M95.1917 67.5857H92.874L93.5757 64.5376C93.6766 64.1039 93.7346 63.8072 93.7587 63.6415C93.779 63.4751 93.7896 63.3471 93.7896 63.256C93.7896 63.0843 93.7504 62.9601 93.6842 62.8788C93.6126 62.7959 93.5117 62.759 93.3769 62.759C93.2572 62.759 93.1277 62.7989 92.9839 62.89C92.8416 62.9804 92.6857 63.1205 92.5088 63.3117C92.3303 63.5007 92.1925 63.7063 92.0886 63.9134C91.9847 64.1272 91.8988 64.3975 91.8356 64.7123L91.2204 67.5857H89.6143L90.4915 63.6287C90.5148 63.5414 90.5329 63.4119 90.5668 63.244C90.5977 63.0783 90.6165 62.9397 90.6165 62.8268C90.6165 62.6709 90.5706 62.5633 90.4862 62.5083C90.3959 62.448 90.2588 62.4104 90.0736 62.3953L90.1564 62.0234L91.6933 61.9676H92.2836L91.9643 63.1769L92.0344 63.1943C92.2911 62.8818 92.5276 62.6303 92.7482 62.4503C92.9718 62.2688 93.1895 62.1356 93.4048 62.0557C93.6247 61.9752 93.8671 61.9338 94.1367 61.9338C94.514 61.9338 94.8204 62.0414 95.0388 62.2621C95.2609 62.4759 95.3709 62.7696 95.3709 63.1476C95.3709 63.3915 95.3325 63.6807 95.2542 64.018L94.8016 66.0903C94.7624 66.2604 94.7323 66.3945 94.7271 66.4901C94.7097 66.5797 94.7015 66.6603 94.7015 66.7303C94.7015 66.899 94.7459 67.0142 94.831 67.0804C94.9115 67.149 95.0576 67.1941 95.2647 67.2152L95.1917 67.5857Z" stroke="white" stroke-width="2.66667" stroke-miterlimit="10"/>
<path d="M97.9069 66.0446C97.9069 66.4 97.9694 66.6575 98.0786 66.8314C98.1923 67.0069 98.3685 67.0957 98.6177 67.0957C98.7563 67.0957 98.8888 67.0641 99.0115 67.0069C99.1403 66.9474 99.2555 66.8518 99.3843 66.7102C99.5063 66.5701 99.6177 66.3932 99.7111 66.1741C99.8074 65.964 99.8986 65.6974 99.9897 65.3827C100.078 65.0634 100.143 64.7577 100.191 64.4542C100.241 64.15 100.262 63.8707 100.262 63.6056C100.262 63.2329 100.209 62.9558 100.093 62.7841C99.9791 62.6087 99.8074 62.5206 99.5635 62.5206C99.2517 62.5206 98.9807 62.6712 98.7518 62.9746C98.5221 63.2796 98.3195 63.7532 98.1561 64.3857C97.9912 65.025 97.9069 65.5777 97.9069 66.0446ZM98.4807 67.6755C98.0756 67.6755 97.7119 67.6033 97.3964 67.4572C97.0892 67.3066 96.8437 67.0844 96.6675 66.7825C96.489 66.4828 96.3994 66.1168 96.3994 65.6794C96.3994 65.5182 96.4115 65.3307 96.4333 65.1297C96.4657 64.8782 96.5109 64.6192 96.5899 64.3503C96.6727 64.0446 96.7827 63.7705 96.9175 63.5326C97.0538 63.2653 97.2239 63.0326 97.4069 62.8338C97.5967 62.6403 97.7955 62.4761 98.0183 62.3474C98.2345 62.2209 98.4731 62.1192 98.7292 62.0545C99.0401 61.9724 99.3587 61.934 99.6945 61.934C100.158 61.934 100.545 62.0221 100.859 62.19C101.175 62.3632 101.407 62.5966 101.555 62.9001C101.706 63.2058 101.779 63.5574 101.779 63.9543C101.779 64.449 101.703 64.9407 101.537 65.4369C101.368 65.9354 101.145 66.3518 100.859 66.6884C100.567 67.0265 100.225 67.2772 99.8285 67.4391C99.4362 67.5942 98.9844 67.6755 98.4807 67.6755Z" fill="#8D287B"/>
<path d="M97.9069 66.0446C97.9069 66.4 97.9694 66.6575 98.0786 66.8314C98.1923 67.0069 98.3685 67.0957 98.6177 67.0957C98.7563 67.0957 98.8888 67.0641 99.0115 67.0069C99.1403 66.9474 99.2555 66.8518 99.3843 66.7102C99.5063 66.5701 99.6177 66.3932 99.7111 66.1741C99.8074 65.964 99.8986 65.6974 99.9897 65.3827C100.078 65.0634 100.143 64.7577 100.191 64.4542C100.241 64.15 100.262 63.8707 100.262 63.6056C100.262 63.2329 100.209 62.9558 100.093 62.7841C99.9791 62.6087 99.8074 62.5206 99.5635 62.5206C99.2517 62.5206 98.9807 62.6712 98.7518 62.9746C98.5221 63.2796 98.3195 63.7532 98.1561 64.3857C97.9912 65.025 97.9069 65.5777 97.9069 66.0446ZM98.4807 67.6755C98.0756 67.6755 97.7119 67.6033 97.3964 67.4572C97.0892 67.3066 96.8437 67.0844 96.6675 66.7825C96.489 66.4828 96.3994 66.1168 96.3994 65.6794C96.3994 65.5182 96.4115 65.3307 96.4333 65.1297C96.4657 64.8782 96.5109 64.6192 96.5899 64.3503C96.6727 64.0446 96.7827 63.7705 96.9175 63.5326C97.0538 63.2653 97.2239 63.0326 97.4069 62.8338C97.5967 62.6403 97.7955 62.4761 98.0183 62.3474C98.2345 62.2209 98.4731 62.1192 98.7292 62.0545C99.0401 61.9724 99.3587 61.934 99.6945 61.934C100.158 61.934 100.545 62.0221 100.859 62.19C101.175 62.3632 101.407 62.5966 101.555 62.9001C101.706 63.2058 101.779 63.5574 101.779 63.9543C101.779 64.449 101.703 64.9407 101.537 65.4369C101.368 65.9354 101.145 66.3518 100.859 66.6884C100.567 67.0265 100.225 67.2772 99.8285 67.4391C99.4362 67.5942 98.9844 67.6755 98.4807 67.6755Z" stroke="white" stroke-width="2.66667" stroke-miterlimit="10"/>
<path d="M106.411 63.8194C106.411 63.2788 106.19 63.0062 105.743 63.0062C105.261 63.0062 104.871 63.3255 104.58 63.9663C104.291 64.604 104.14 65.287 104.14 66.0114C104.14 66.3645 104.191 66.6281 104.297 66.8163C104.401 66.9993 104.585 67.0957 104.864 67.0957C105.357 67.0957 105.738 66.671 106.011 65.8314C106.277 64.9948 106.411 64.3239 106.411 63.8194ZM106.701 62.4881C106.72 62.3955 106.73 62.272 106.73 62.1192C106.73 60.9008 106.395 60.2939 105.743 60.2939C105.37 60.2939 104.968 60.3858 104.536 60.5778L104.341 59.9656C104.931 59.7043 105.49 59.5763 106.009 59.5763C106.705 59.5763 107.242 59.7985 107.62 60.2435C107.998 60.6915 108.184 61.3323 108.184 62.1538C108.184 63.8887 107.899 65.2448 107.322 66.2207C106.748 67.1943 105.909 67.686 104.801 67.686C104.11 67.686 103.572 67.5136 103.178 67.177C102.788 66.8434 102.596 66.3645 102.596 65.7403C102.596 64.8096 102.889 63.9949 103.477 63.3021C104.059 62.6086 104.787 62.2638 105.669 62.2638C106.089 62.2638 106.433 62.3375 106.701 62.4881Z" fill="#8D287B"/>
<path d="M106.411 63.8194C106.411 63.2788 106.19 63.0062 105.743 63.0062C105.261 63.0062 104.871 63.3255 104.58 63.9663C104.291 64.604 104.14 65.287 104.14 66.0114C104.14 66.3645 104.191 66.6281 104.297 66.8163C104.401 66.9993 104.585 67.0957 104.864 67.0957C105.357 67.0957 105.738 66.671 106.011 65.8314C106.277 64.9948 106.411 64.3239 106.411 63.8194ZM106.701 62.4881C106.72 62.3955 106.73 62.272 106.73 62.1192C106.73 60.9008 106.395 60.2939 105.743 60.2939C105.37 60.2939 104.968 60.3858 104.536 60.5778L104.341 59.9656C104.931 59.7043 105.49 59.5763 106.009 59.5763C106.705 59.5763 107.242 59.7985 107.62 60.2435C107.998 60.6915 108.184 61.3323 108.184 62.1538C108.184 63.8887 107.899 65.2448 107.322 66.2207C106.748 67.1943 105.909 67.686 104.801 67.686C104.11 67.686 103.572 67.5136 103.178 67.177C102.788 66.8434 102.596 66.3645 102.596 65.7403C102.596 64.8096 102.889 63.9949 103.477 63.3021C104.059 62.6086 104.787 62.2638 105.669 62.2638C106.089 62.2638 106.433 62.3375 106.701 62.4881V62.4881Z" stroke="white" stroke-width="2.66667" stroke-miterlimit="10"/>
<path d="M112.796 64.1003C112.82 63.9791 112.841 63.8458 112.859 63.7058C112.875 63.5529 112.885 63.4091 112.885 63.269C112.885 63.0206 112.839 62.8368 112.747 62.7118C112.652 62.5853 112.5 62.5206 112.284 62.5206C111.943 62.5206 111.628 62.693 111.363 63.0431C111.09 63.3948 110.88 63.8616 110.711 64.4542C110.548 65.0423 110.467 65.5754 110.467 66.0393C110.467 66.3126 110.501 66.5167 110.588 66.6537C110.662 66.7855 110.79 66.854 110.958 66.854C111.205 66.854 111.457 66.7343 111.711 66.4918C111.968 66.2516 112.172 65.9693 112.33 65.6432C112.488 65.3164 112.628 64.8744 112.752 64.3082L112.796 64.1003ZM113.638 62.3376L114.142 61.934L114.775 62.0236L113.91 65.9324C113.869 66.1296 113.832 66.2923 113.81 66.409C113.793 66.5317 113.784 66.6281 113.784 66.714C113.784 66.8819 113.822 66.9994 113.91 67.0769C113.986 67.1515 114.132 67.1989 114.336 67.2155L114.278 67.5859H112.126L112.433 66.4399L112.358 66.4158C112.104 66.7448 111.872 66.9994 111.65 67.1816C111.433 67.3608 111.217 67.4918 111.009 67.5633C110.795 67.6432 110.551 67.6755 110.275 67.6755C110.016 67.6755 109.784 67.6138 109.584 67.4918C109.388 67.3691 109.229 67.171 109.114 66.9067C108.998 66.6402 108.943 66.3021 108.943 65.8887C108.943 65.4949 108.985 65.0988 109.079 64.7035C109.171 64.3021 109.306 63.9256 109.483 63.583C109.665 63.2329 109.894 62.94 110.161 62.69C110.434 62.4483 110.748 62.2623 111.09 62.1298C111.433 62.0003 111.812 61.934 112.216 61.934C112.771 61.934 113.246 62.0695 113.638 62.3376Z" fill="#8D287B"/>
<path d="M112.796 64.1003C112.82 63.9791 112.841 63.8458 112.859 63.7058C112.875 63.5529 112.885 63.4091 112.885 63.269C112.885 63.0206 112.839 62.8368 112.747 62.7118C112.652 62.5853 112.5 62.5206 112.284 62.5206C111.943 62.5206 111.628 62.693 111.363 63.0431C111.09 63.3948 110.88 63.8616 110.711 64.4542C110.548 65.0423 110.467 65.5754 110.467 66.0393C110.467 66.3126 110.501 66.5167 110.588 66.6537C110.662 66.7855 110.79 66.854 110.958 66.854C111.205 66.854 111.457 66.7343 111.711 66.4918C111.968 66.2516 112.172 65.9693 112.33 65.6432C112.488 65.3164 112.628 64.8744 112.752 64.3082L112.796 64.1003ZM113.638 62.3376L114.142 61.934L114.775 62.0236L113.91 65.9324C113.869 66.1296 113.832 66.2923 113.81 66.409C113.793 66.5317 113.784 66.6281 113.784 66.714C113.784 66.8819 113.822 66.9994 113.91 67.0769C113.986 67.1515 114.132 67.1989 114.336 67.2155L114.278 67.5859H112.126L112.433 66.4399L112.358 66.4158C112.104 66.7448 111.872 66.9994 111.65 67.1816C111.433 67.3608 111.217 67.4918 111.009 67.5633C110.795 67.6432 110.551 67.6755 110.275 67.6755C110.016 67.6755 109.784 67.6138 109.584 67.4918C109.388 67.3691 109.229 67.171 109.114 66.9067C108.998 66.6402 108.943 66.3021 108.943 65.8887C108.943 65.4949 108.985 65.0988 109.079 64.7035C109.171 64.3021 109.306 63.9256 109.483 63.583C109.665 63.2329 109.894 62.94 110.161 62.69C110.434 62.4483 110.748 62.2623 111.09 62.1298C111.433 62.0003 111.812 61.934 112.216 61.934C112.771 61.934 113.246 62.0695 113.638 62.3376V62.3376Z" stroke="white" stroke-width="2.66667" stroke-miterlimit="10"/>
<path d="M117.411 65.5114C117.349 65.7908 117.322 66.0619 117.322 66.3254C117.322 66.6018 117.368 66.796 117.456 66.918C117.551 67.0332 117.703 67.0957 117.923 67.0957C118.06 67.0957 118.187 67.0701 118.304 67.0264C118.42 66.9828 118.535 66.9067 118.652 66.8043C118.769 66.7019 118.878 66.5536 118.993 66.3518C119.14 66.1078 119.27 65.8269 119.382 65.5114C119.489 65.2012 119.572 64.8706 119.642 64.5235C119.703 64.1809 119.731 63.8616 119.731 63.5755C119.731 63.2946 119.691 63.0898 119.616 62.9603C119.535 62.827 119.411 62.7623 119.243 62.7623C118.993 62.7623 118.746 62.882 118.49 63.1237C118.232 63.3616 118.026 63.6418 117.876 63.9595C117.722 64.2773 117.584 64.7283 117.454 65.3051L117.411 65.5114ZM116.289 63.6809C116.379 63.2766 116.425 62.9942 116.425 62.8383C116.425 62.6862 116.386 62.577 116.307 62.519C116.226 62.4573 116.089 62.4159 115.882 62.3956L115.965 62.0236L117.481 61.9679H118.093L117.773 63.1764L117.839 63.1945C118.096 62.8737 118.331 62.6177 118.553 62.4362C118.761 62.2585 118.977 62.1298 119.192 62.0529C119.401 61.9724 119.647 61.934 119.927 61.934C120.186 61.934 120.42 61.9972 120.614 62.1192C120.81 62.2397 120.974 62.4385 121.088 62.7096C121.2 62.9746 121.261 63.315 121.261 63.7253C121.261 64.1199 121.21 64.5107 121.124 64.9128C121.031 65.3134 120.898 65.6846 120.719 66.0325C120.54 66.3759 120.314 66.671 120.047 66.921C119.772 67.165 119.462 67.3532 119.118 67.4828C118.769 67.6115 118.392 67.6755 117.988 67.6755C117.652 67.6755 117.335 67.6183 117.023 67.5046L116.773 68.689C116.764 68.744 116.75 68.8065 116.743 68.8562C116.73 68.9134 116.723 68.9594 116.72 69.0083C116.72 69.0565 116.713 69.0979 116.713 69.1423C116.713 69.3005 116.761 69.4172 116.844 69.491C116.926 69.5595 117.068 69.6054 117.279 69.634L117.208 70H114.886L116.289 63.6809Z" fill="#8D287B"/>
<path d="M117.411 65.5114C117.349 65.7908 117.322 66.0619 117.322 66.3254C117.322 66.6018 117.368 66.796 117.456 66.918C117.551 67.0332 117.703 67.0957 117.923 67.0957C118.06 67.0957 118.187 67.0701 118.304 67.0264C118.42 66.9828 118.535 66.9067 118.652 66.8043C118.769 66.7019 118.878 66.5536 118.993 66.3518C119.14 66.1078 119.27 65.8269 119.382 65.5114C119.489 65.2012 119.572 64.8706 119.642 64.5235C119.703 64.1809 119.731 63.8616 119.731 63.5755C119.731 63.2946 119.691 63.0898 119.616 62.9603C119.535 62.827 119.411 62.7623 119.243 62.7623C118.993 62.7623 118.746 62.882 118.49 63.1237C118.232 63.3616 118.026 63.6418 117.876 63.9595C117.722 64.2773 117.584 64.7283 117.454 65.3051L117.411 65.5114ZM116.289 63.6809C116.379 63.2766 116.425 62.9942 116.425 62.8383C116.425 62.6862 116.386 62.577 116.307 62.519C116.226 62.4573 116.089 62.4159 115.882 62.3956L115.965 62.0236L117.481 61.9679H118.093L117.773 63.1764L117.839 63.1945C118.096 62.8737 118.331 62.6177 118.553 62.4362C118.761 62.2585 118.977 62.1298 119.192 62.0529C119.401 61.9724 119.647 61.934 119.927 61.934C120.186 61.934 120.42 61.9972 120.614 62.1192C120.81 62.2397 120.974 62.4385 121.088 62.7096C121.2 62.9746 121.261 63.315 121.261 63.7253C121.261 64.1199 121.21 64.5107 121.124 64.9128C121.031 65.3134 120.898 65.6846 120.719 66.0325C120.54 66.3759 120.314 66.671 120.047 66.921C119.772 67.165 119.462 67.3532 119.118 67.4828C118.769 67.6115 118.392 67.6755 117.988 67.6755C117.652 67.6755 117.335 67.6183 117.023 67.5046L116.773 68.689C116.764 68.744 116.75 68.8065 116.743 68.8562C116.73 68.9134 116.723 68.9594 116.72 69.0083C116.72 69.0565 116.713 69.0979 116.713 69.1423C116.713 69.3005 116.761 69.4172 116.844 69.491C116.926 69.5595 117.068 69.6054 117.279 69.634L117.208 70H114.886L116.289 63.6809Z" stroke="white" stroke-width="2.66667" stroke-miterlimit="10"/>
<path d="M125.241 65.9359C125.192 65.6708 125.103 65.4758 125.007 65.3516C124.899 65.2273 124.735 65.1671 124.503 65.1671C124.283 65.3712 124.106 65.5489 123.971 65.6904L123.585 67.5857H121.976L122.868 63.6295C122.948 63.262 122.992 62.9947 122.992 62.8268C122.992 62.6679 122.948 62.558 122.868 62.5015C122.784 62.448 122.635 62.4089 122.424 62.3901L122.517 62.0241L124.189 61.9345H124.82L124.223 64.6829C124.93 63.8855 125.539 63.2281 126.063 62.7123C126.583 62.1935 127.153 61.9345 127.773 61.9345C128.033 61.9345 128.259 61.988 128.463 62.0881L128.14 63.5015H127.472C127.456 63.3471 127.405 63.2281 127.313 63.1415C127.225 63.0519 127.125 63.006 127.015 63.006C126.857 63.006 126.655 63.1047 126.41 63.2974C126.164 63.4902 125.791 63.8712 125.287 64.4284V64.454C125.643 64.454 125.955 64.5496 126.215 64.7386C126.472 64.9314 126.643 65.1829 126.721 65.4946L127.015 66.6264C127.072 66.8342 127.139 66.9795 127.222 67.0563C127.302 67.1392 127.472 67.1896 127.734 67.2115L127.651 67.5857H125.623C125.579 67.5096 125.501 67.1655 125.371 66.5549L125.241 65.9359Z" fill="#8D287B"/>
<path d="M125.241 65.9359C125.192 65.6708 125.103 65.4758 125.007 65.3516C124.899 65.2273 124.735 65.1671 124.503 65.1671C124.283 65.3712 124.106 65.5489 123.971 65.6904L123.585 67.5857H121.976L122.868 63.6295C122.948 63.262 122.992 62.9947 122.992 62.8268C122.992 62.6679 122.948 62.558 122.868 62.5015C122.784 62.448 122.635 62.4089 122.424 62.3901L122.517 62.0241L124.189 61.9345H124.82L124.223 64.6829C124.93 63.8855 125.539 63.2281 126.063 62.7123C126.583 62.1935 127.153 61.9345 127.773 61.9345C128.033 61.9345 128.259 61.988 128.463 62.0881L128.14 63.5015H127.472C127.456 63.3471 127.405 63.2281 127.313 63.1415C127.225 63.0519 127.125 63.006 127.015 63.006C126.857 63.006 126.655 63.1047 126.41 63.2974C126.164 63.4902 125.791 63.8712 125.287 64.4284V64.454C125.643 64.454 125.955 64.5496 126.215 64.7386C126.472 64.9314 126.643 65.1829 126.721 65.4946L127.015 66.6264C127.072 66.8342 127.139 66.9795 127.222 67.0563C127.302 67.1392 127.472 67.1896 127.734 67.2115L127.651 67.5857H125.623C125.579 67.5096 125.501 67.1655 125.371 66.5549L125.241 65.9359Z" stroke="white" stroke-width="2.66667" stroke-miterlimit="10"/>
<path d="M130.065 66.0446C130.065 66.4 130.121 66.6575 130.235 66.8314C130.35 67.0069 130.531 67.0957 130.778 67.0957C130.916 67.0957 131.049 67.0641 131.171 67.0069C131.298 66.9474 131.42 66.8518 131.542 66.7102C131.662 66.5701 131.775 66.3932 131.869 66.1741C131.964 65.964 132.059 65.6974 132.147 65.3827C132.238 65.0634 132.303 64.7577 132.354 64.4542C132.399 64.15 132.422 63.8707 132.422 63.6056C132.422 63.2329 132.371 62.9558 132.249 62.7841C132.139 62.6087 131.961 62.5206 131.727 62.5206C131.412 62.5206 131.135 62.6712 130.908 62.9746C130.68 63.2796 130.486 63.7532 130.315 64.3857C130.153 65.025 130.065 65.5777 130.065 66.0446ZM130.644 67.6755C130.231 67.6755 129.872 67.6033 129.556 67.4572C129.246 67.3066 129.002 67.0844 128.83 66.7825C128.647 66.4828 128.556 66.1168 128.556 65.6794C128.556 65.5182 128.571 65.3307 128.592 65.1297C128.622 64.8782 128.675 64.6192 128.752 64.3503C128.837 64.0446 128.94 63.7705 129.074 63.5326C129.221 63.2653 129.382 63.0326 129.568 62.8338C129.754 62.6403 129.959 62.4761 130.172 62.3474C130.391 62.2209 130.631 62.1192 130.889 62.0545C131.194 61.9724 131.516 61.934 131.854 61.934C132.315 61.934 132.708 62.0221 133.017 62.19C133.331 62.3632 133.565 62.5966 133.716 62.9001C133.867 63.2058 133.939 63.5574 133.939 63.9543C133.939 64.449 133.858 64.9407 133.692 65.4369C133.531 65.9354 133.303 66.3518 133.014 66.6884C132.729 67.0265 132.383 67.2772 131.988 67.4391C131.594 67.5942 131.142 67.6755 130.644 67.6755Z" fill="#8D287B"/>
<path d="M130.065 66.0446C130.065 66.4 130.121 66.6575 130.235 66.8314C130.35 67.0069 130.531 67.0957 130.778 67.0957C130.916 67.0957 131.049 67.0641 131.171 67.0069C131.298 66.9474 131.42 66.8518 131.542 66.7102C131.662 66.5701 131.775 66.3932 131.869 66.1741C131.964 65.964 132.059 65.6974 132.147 65.3827C132.238 65.0634 132.303 64.7577 132.354 64.4542C132.399 64.15 132.422 63.8707 132.422 63.6056C132.422 63.2329 132.371 62.9558 132.249 62.7841C132.139 62.6087 131.961 62.5206 131.727 62.5206C131.412 62.5206 131.135 62.6712 130.908 62.9746C130.68 63.2796 130.486 63.7532 130.315 64.3857C130.153 65.025 130.065 65.5777 130.065 66.0446ZM130.644 67.6755C130.231 67.6755 129.872 67.6033 129.556 67.4572C129.246 67.3066 129.002 67.0844 128.83 66.7825C128.647 66.4828 128.556 66.1168 128.556 65.6794C128.556 65.5182 128.571 65.3307 128.592 65.1297C128.622 64.8782 128.675 64.6192 128.752 64.3503C128.837 64.0446 128.94 63.7705 129.074 63.5326C129.221 63.2653 129.382 63.0326 129.568 62.8338C129.754 62.6403 129.959 62.4761 130.172 62.3474C130.391 62.2209 130.631 62.1192 130.889 62.0545C131.194 61.9724 131.516 61.934 131.854 61.934C132.315 61.934 132.708 62.0221 133.017 62.19C133.331 62.3632 133.565 62.5966 133.716 62.9001C133.867 63.2058 133.939 63.5574 133.939 63.9543C133.939 64.449 133.858 64.9407 133.692 65.4369C133.531 65.9354 133.303 66.3518 133.014 66.6884C132.729 67.0265 132.383 67.2772 131.988 67.4391C131.594 67.5942 131.142 67.6755 130.644 67.6755Z" stroke="white" stroke-width="2.66667" stroke-miterlimit="10"/>
<path d="M136.439 64.5004C138.085 64.4854 138.914 64.078 138.914 63.2851C138.914 63.0682 138.842 62.8845 138.692 62.7377C138.551 62.5923 138.354 62.5208 138.115 62.5208C137.385 62.5208 136.825 63.1782 136.439 64.5004ZM136.338 65.0403C136.274 65.3227 136.247 65.6036 136.247 65.9002C136.247 66.6284 136.542 66.9988 137.13 66.9988C137.518 66.9988 137.827 66.91 138.045 66.7345C138.271 66.5553 138.384 66.3023 138.384 65.9755C138.384 65.3475 138.015 65.0343 137.274 65.0343H137L136.338 65.0403ZM138.882 64.6736V64.7436C139.569 64.8988 139.916 65.2753 139.916 65.8814C139.916 66.471 139.665 66.9183 139.156 67.218C138.652 67.5214 137.964 67.6758 137.086 67.6758C136.357 67.6758 135.778 67.5049 135.373 67.157C134.963 66.8144 134.755 66.3242 134.755 65.6849C134.755 65.1239 134.882 64.5223 135.137 63.889C135.393 63.255 135.799 62.7685 136.347 62.4357C136.893 62.0999 137.557 61.9342 138.344 61.9342C138.943 61.9342 139.416 62.0532 139.762 62.2829C140.109 62.5133 140.283 62.8213 140.283 63.2106C140.283 63.9221 139.816 64.4108 138.882 64.6736Z" fill="#8D287B"/>
<path d="M136.439 64.5004C138.085 64.4854 138.914 64.078 138.914 63.2851C138.914 63.0682 138.842 62.8845 138.692 62.7377C138.551 62.5923 138.354 62.5208 138.115 62.5208C137.385 62.5208 136.825 63.1782 136.439 64.5004ZM136.338 65.0403C136.274 65.3227 136.247 65.6036 136.247 65.9002C136.247 66.6284 136.542 66.9988 137.13 66.9988C137.518 66.9988 137.827 66.91 138.045 66.7345C138.271 66.5553 138.384 66.3023 138.384 65.9755C138.384 65.3475 138.015 65.0343 137.274 65.0343H137L136.338 65.0403ZM138.882 64.6736V64.7436C139.569 64.8988 139.916 65.2753 139.916 65.8814C139.916 66.471 139.665 66.9183 139.156 67.218C138.652 67.5214 137.964 67.6758 137.086 67.6758C136.357 67.6758 135.778 67.5049 135.373 67.157C134.963 66.8144 134.755 66.3242 134.755 65.6849C134.755 65.1239 134.882 64.5223 135.137 63.889C135.393 63.255 135.799 62.7685 136.347 62.4357C136.893 62.0999 137.557 61.9342 138.344 61.9342C138.943 61.9342 139.416 62.0532 139.762 62.2829C140.109 62.5133 140.283 62.8213 140.283 63.2106C140.283 63.9221 139.816 64.4108 138.882 64.6736Z" stroke="white" stroke-width="2.66667" stroke-miterlimit="10"/>
<path fill-rule="evenodd" clip-rule="evenodd" d="M130.454 2.00003C141.54 2.00003 150.524 10.9975 150.524 22.0898C150.524 33.1813 141.54 42.175 130.454 42.175C119.377 42.175 110.385 33.1813 110.385 22.0898C110.385 10.9975 119.377 2.00003 130.454 2.00003Z" fill="#F0801B"/>
<path d="M130.454 2.00004C141.54 2.00004 150.524 10.9975 150.524 22.0898C150.524 33.1813 141.54 42.175 130.454 42.175C119.377 42.175 110.385 33.1813 110.385 22.0898C110.385 10.9975 119.377 2.00004 130.454 2.00004Z" stroke="white" stroke-width="2.66667" stroke-miterlimit="10"/>
<path fill-rule="evenodd" clip-rule="evenodd" d="M17.7876 23.3614C24.0646 22.393 30.587 28.7566 32.3535 37.5756C34.1207 46.3878 30.4574 54.3213 24.1768 55.2904C17.9021 56.2572 11.3774 49.8945 9.61092 41.0747C7.84817 32.2617 11.5092 24.332 17.7876 23.3614ZM20.9171 19.7659C31.2564 19.7659 39.6417 28.4757 39.6417 39.2163C39.6417 49.9562 31.2564 58.6646 20.9171 58.6646C10.5785 58.6646 2.18945 49.9562 2.18945 39.2163C2.18945 28.4757 10.5785 19.7659 20.9171 19.7659Z" fill="#8D287B"/>
<path d="M17.7876 23.3614C24.0646 22.393 30.587 28.7566 32.3535 37.5756C34.1207 46.3878 30.4574 54.3213 24.1768 55.2904C17.9021 56.2572 11.3774 49.8945 9.61092 41.0747C7.84817 32.2617 11.5092 24.332 17.7876 23.3614ZM20.9171 19.7659C31.2564 19.7659 39.6417 28.4757 39.6417 39.2163C39.6417 49.9562 31.2564 58.6646 20.9171 58.6646C10.5785 58.6646 2.18945 49.9562 2.18945 39.2163C2.18945 28.4757 10.5785 19.7659 20.9171 19.7659V19.7659Z" stroke="white" stroke-width="2.66667" stroke-miterlimit="10"/>
<path fill-rule="evenodd" clip-rule="evenodd" d="M56.2534 42.4318C53.5178 42.9356 51.0104 44.0831 48.9042 46.3715C45.7793 51.0634 52.0698 55.1167 54.9447 50.5566C56.1518 48.589 56.6216 45.1381 56.2534 42.4318ZM44.2056 37.4696L45.3471 30.4375C49.798 29.1973 54.249 29.1732 58.7021 30.9299C61.7442 32.5315 62.9309 34.9825 62.7992 39.1601V49.9203C62.9791 51.7757 64.0085 53.1582 65.8857 54.0716L60.5507 58.6543C58.9823 58.2243 57.2715 56.6099 56.6871 54.7779C55.1443 57.8071 52.3635 58.9457 49.4743 58.7883C45.6784 58.2032 43.6393 55.9232 42.2599 52.2471C40.787 46.8474 43.1943 43.7172 46.1521 41.9725C49.3794 40.1525 52.4674 39.5742 55.8174 39.0908C57.4206 37.063 56.1751 33.7469 53.1978 34.097C49.9404 34.3033 46.9623 35.4132 44.2056 37.4696Z" fill="#8D287B"/>
<path d="M56.2534 42.4318C53.5178 42.9356 51.0104 44.0831 48.9042 46.3715C45.7793 51.0634 52.0698 55.1167 54.9447 50.5566C56.1518 48.589 56.6216 45.1381 56.2534 42.4318ZM44.2056 37.4696L45.3471 30.4375C49.798 29.1973 54.249 29.1732 58.7021 30.9299C61.7442 32.5315 62.9309 34.9825 62.7992 39.1601V49.9203C62.9791 51.7757 64.0085 53.1582 65.8857 54.0716L60.5507 58.6543C58.9823 58.2243 57.2715 56.6099 56.6871 54.7779C55.1443 57.8071 52.3635 58.9457 49.4743 58.7883C45.6784 58.2032 43.6393 55.9232 42.2599 52.2471C40.787 46.8474 43.1943 43.7172 46.1521 41.9725C49.3794 40.1525 52.4674 39.5742 55.8174 39.0908C57.4206 37.063 56.1751 33.7469 53.1978 34.097C49.9404 34.3033 46.9623 35.4132 44.2056 37.4696Z" stroke="white" stroke-width="2.66667" stroke-miterlimit="10"/>
<path fill-rule="evenodd" clip-rule="evenodd" d="M71.5595 38.8525L67.8623 33.3654C70.7312 30.7126 74.1084 29.2217 78.2302 29.1931C80.0238 29.0817 84.1058 29.6057 86.2872 31.379C88.3542 33.1267 89.4422 36.2524 89.0409 38.4105C88.6787 40.3102 87.8331 41.7357 86.1133 42.8358C88.6426 44.0187 90.2442 47.2295 90.4143 49.5419C90.3518 52.5365 88.9272 54.6562 86.861 56.4046C84.669 58.1779 80.0238 58.9392 78.2302 58.8248C74.1084 58.7976 71.2011 57.7751 68.3307 55.12L70.7184 48.4659C71.561 50.4831 73.567 53.2534 74.5398 54.1291C76.0616 55.5297 78.2114 55.8143 79.9094 55.4243C82.0441 55.0598 84.1126 52.3581 83.6043 49.438C82.9108 46.6956 80.517 45.5458 77.8906 45.5789C77.7152 45.5812 75.1204 45.8274 74.9442 45.8379L75.347 44.0534L75.3832 43.9638L75.7446 42.1822C78.5796 42.3795 81.252 41.268 81.9944 38.3457C82.3235 35.6364 81.2881 34.196 79.3409 33.6004C77.6399 33.2065 75.4901 33.4964 73.9736 34.8932C72.9992 35.7697 72.3968 36.8269 71.5595 38.8525Z" fill="#8D287B"/>
<path d="M71.5595 38.8525L67.8623 33.3654C70.7312 30.7126 74.1084 29.2217 78.2302 29.1931C80.0238 29.0817 84.1058 29.6057 86.2872 31.379C88.3542 33.1267 89.4422 36.2524 89.0409 38.4105C88.6787 40.3102 87.8331 41.7357 86.1133 42.8358C88.6426 44.0187 90.2442 47.2295 90.4143 49.5419C90.3518 52.5365 88.9272 54.6562 86.861 56.4046C84.669 58.1779 80.0238 58.9392 78.2302 58.8248C74.1084 58.7976 71.2011 57.7751 68.3307 55.12L70.7184 48.4659C71.561 50.4831 73.567 53.2534 74.5398 54.1291C76.0616 55.5297 78.2114 55.8143 79.9094 55.4243C82.0441 55.0598 84.1126 52.3581 83.6043 49.438C82.9108 46.6956 80.517 45.5458 77.8906 45.5789C77.7152 45.5812 75.1204 45.8274 74.9442 45.8379L75.347 44.0534L75.3832 43.9638L75.7446 42.1822C78.5796 42.3795 81.252 41.268 81.9944 38.3457C82.3235 35.6364 81.2881 34.196 79.3409 33.6004C77.6399 33.2065 75.4901 33.4964 73.9736 34.8932C72.9992 35.7697 72.3968 36.8269 71.5595 38.8525Z" stroke="white" stroke-width="2.66667" stroke-miterlimit="10"/>
<path fill-rule="evenodd" clip-rule="evenodd" d="M136.831 39.8955L140.117 32.6307C136.03 29.0359 131.745 28.7769 127.299 31.2844C123.314 34.1389 120.956 38.12 120.72 43.9346C120.937 55.0736 126.549 59.4944 135.155 59.0749L140.924 52.0759C137.331 52.8116 133.103 52.2197 130.421 49.8553C127.451 47.2214 126.121 43.1658 126.493 38.821C126.795 36.5786 127.74 34.9168 129.649 34.1111C133.327 32.901 135.394 35.9905 136.831 39.8955Z" fill="#8D287B"/>
<path d="M136.831 39.8955L140.117 32.6307C136.03 29.0359 131.745 28.7769 127.299 31.2844C123.314 34.1389 120.956 38.12 120.72 43.9346C120.937 55.0736 126.549 59.4944 135.155 59.0749L140.924 52.0759C137.331 52.8116 133.103 52.2197 130.421 49.8553C127.451 47.2214 126.121 43.1658 126.493 38.821C126.795 36.5786 127.74 34.9168 129.649 34.1111C133.327 32.901 135.394 35.9905 136.831 39.8955Z" stroke="white" stroke-width="2.66667" stroke-miterlimit="10"/>
<path fill-rule="evenodd" clip-rule="evenodd" d="M105.451 29.5973H117.03V51.9889C116.927 55.604 118.399 57.305 121.353 57.7011L120.374 58.939H117.03H110.117L110.113 55.8126C108.361 57.9443 106.604 58.988 104.846 58.939H101.191C96.7833 58.9006 94.4302 56.3141 94.6132 50.7051V35.6716C94.6335 32.8916 92.9717 31.278 90.3174 31.1296L90.3189 29.5973H101.191V48.6886C101.852 54.6929 109.806 54.7968 110.455 48.6886V35.7786C110.385 32.7132 108.251 31.5792 105.447 31.3073L105.451 29.5973Z" fill="#8D287B"/>
<path d="M105.451 29.5973H117.03V51.9889C116.927 55.604 118.399 57.305 121.353 57.7011L120.374 58.939H117.03H110.117L110.113 55.8126C108.361 57.9443 106.604 58.988 104.846 58.939H101.191C96.7833 58.9006 94.4302 56.3141 94.6132 50.7051V35.6716C94.6335 32.8916 92.9717 31.278 90.3174 31.1296L90.3189 29.5973H101.191V48.6886C101.852 54.6929 109.806 54.7968 110.455 48.6886V35.7786C110.385 32.7132 108.251 31.5792 105.447 31.3073L105.451 29.5973Z" stroke="white" stroke-width="2.66667" stroke-miterlimit="10"/>
<path d="M8.27391 60.1195L7.91473 61.7565H7.18057C7.16702 61.4245 7.1384 61.1737 7.08193 61.0058C7.02847 60.8401 6.9366 60.7136 6.81688 60.624C6.70016 60.5412 6.53375 60.4998 6.32894 60.4998C6.16253 60.4998 5.99687 60.5382 5.81992 60.609C5.64296 60.6843 5.47128 60.798 5.30035 60.9523C5.10307 61.1391 4.91332 61.3733 4.73712 61.6601C4.55866 61.944 4.39903 62.2723 4.25897 62.6466C4.14677 62.9515 4.04136 63.2911 3.94723 63.6812C3.8501 64.0637 3.7876 64.4168 3.74242 64.7384C3.70402 65.0637 3.6867 65.3475 3.6867 65.6005C3.6867 65.9123 3.71606 66.1713 3.77329 66.3739C3.83127 66.5802 3.93443 66.7398 4.07524 66.8543C4.21906 66.9635 4.41785 67.0222 4.66935 67.0222C4.95097 67.0222 5.19644 66.971 5.39147 66.8791C5.59101 66.7827 5.75968 66.648 5.90802 66.468C6.05334 66.288 6.19114 66.0395 6.32894 65.7278H7.06386L6.70393 67.3806C6.34174 67.483 5.98332 67.5606 5.62489 67.6058C5.2627 67.6547 4.87943 67.6758 4.47207 67.6758C3.6754 67.6758 3.06473 67.4574 2.63929 67.0222C2.21536 66.5862 2 65.9635 2 65.1412C2 64.8957 2.02334 64.6104 2.06777 64.2821C2.14006 63.7843 2.25978 63.3084 2.41565 62.8559C2.59034 62.3378 2.82076 61.8913 3.09033 61.5118C3.36442 61.1278 3.67239 60.8176 4.01274 60.5713C4.35008 60.3274 4.71829 60.1466 5.11738 60.0254C5.51571 59.9034 5.93889 59.8454 6.38842 59.8454C6.73631 59.8454 7.0616 59.8725 7.37032 59.914C7.67905 59.9622 7.98024 60.0314 8.27391 60.1195Z" fill="#8D287B"/>
<path d="M11.7312 64.1003C11.7583 63.9791 11.7809 63.8458 11.7945 63.7058C11.8148 63.5529 11.8246 63.4091 11.8246 63.269C11.8246 63.0206 11.7764 62.8368 11.683 62.7118C11.5881 62.5853 11.433 62.5206 11.2229 62.5206C10.8751 62.5206 10.5663 62.693 10.2968 63.0431C10.0287 63.3948 9.81334 63.8616 9.64918 64.4542C9.48805 65.0423 9.39995 65.5754 9.39995 66.0393C9.39995 66.3126 9.44437 66.5167 9.51967 66.6537C9.60325 66.7855 9.72599 66.854 9.89541 66.854C10.1394 66.854 10.3954 66.7343 10.6469 66.4918C10.9059 66.2516 11.1145 65.9693 11.2674 65.6432C11.4232 65.3164 11.5633 64.8744 11.6853 64.3082L11.7312 64.1003ZM12.5791 62.3376L13.0828 61.934L13.7086 62.0236L12.8456 65.9324C12.7997 66.1296 12.7696 66.2923 12.7477 66.409C12.7319 66.5317 12.7169 66.6281 12.7169 66.714C12.7169 66.8819 12.7575 66.9994 12.8411 67.0769C12.9217 67.1515 13.0693 67.1989 13.2801 67.2155L13.2153 67.5859H11.0671L11.369 66.4399L11.2945 66.4158C11.0415 66.7448 10.8058 66.9994 10.5897 67.1816C10.3683 67.3608 10.1559 67.4918 9.94586 67.5633C9.72599 67.6432 9.49106 67.6755 9.20793 67.6755C8.9489 67.6755 8.72301 67.6138 8.51819 67.4918C8.32543 67.3691 8.16956 67.171 8.04984 66.9067C7.93463 66.6402 7.87891 66.3021 7.87891 65.8887C7.87891 65.4949 7.92409 65.0988 8.01595 64.7035C8.1048 64.3021 8.24335 63.9256 8.4188 63.583C8.60102 63.2329 8.82692 62.94 9.0995 62.69C9.37133 62.4483 9.68081 62.2623 10.0287 62.1298C10.3736 62.0003 10.7493 61.934 11.1529 61.934C11.7116 61.934 12.186 62.0695 12.5791 62.3376Z" fill="#8D287B"/>
<path d="M18.5491 62.7723C18.2103 62.7723 17.9301 62.9402 17.6892 63.2693C17.4482 63.6036 17.1214 64.3378 16.7005 65.4725C16.373 66.3445 16.0462 66.9341 15.7216 67.233C15.3963 67.5252 15.0048 67.6758 14.5296 67.6758C14.1592 67.6758 13.8331 67.6351 13.5605 67.5538L13.8956 66.1178H14.4385C14.4385 66.538 14.5424 66.7526 14.7518 66.7526C15.1765 66.7526 15.5951 66.1962 16.016 65.0802C16.5552 63.6872 17.0092 62.8295 17.3872 62.508C17.76 62.1872 18.1832 62.0238 18.656 62.0238H20.537L19.6598 65.9846C19.5762 66.352 19.534 66.6208 19.534 66.7857C19.534 66.9341 19.5762 67.0425 19.6583 67.1005C19.7358 67.157 19.8789 67.1991 20.0784 67.215L19.9933 67.5862H17.7472L18.7697 62.7723H18.5491Z" fill="#8D287B"/>
<path d="M22.7741 66.0446C22.7741 66.4 22.8268 66.6575 22.9428 66.8314C23.0572 67.0069 23.2387 67.0957 23.4834 67.0957C23.6204 67.0957 23.753 67.0641 23.875 67.0069C24.0045 66.9474 24.1227 66.8518 24.2515 66.7102C24.3704 66.5701 24.4804 66.3932 24.5783 66.1741C24.6709 65.964 24.7657 65.6974 24.8538 65.3827C24.9419 65.0634 25.0112 64.7577 25.0564 64.4542C25.1084 64.15 25.1302 63.8707 25.1302 63.6056C25.1302 63.2329 25.0745 62.9558 24.9547 62.7841C24.8433 62.6087 24.6709 62.5206 24.4307 62.5206C24.1189 62.5206 23.8441 62.6712 23.6159 62.9746C23.3893 63.2796 23.1897 63.7532 23.0233 64.3857C22.8569 65.025 22.7741 65.5777 22.7741 66.0446ZM23.3456 67.6755C22.9405 67.6755 22.5776 67.6033 22.2703 67.4572C21.9556 67.3066 21.7048 67.0844 21.5301 66.7825C21.3585 66.4828 21.2666 66.1168 21.2666 65.6794C21.2666 65.5182 21.2771 65.3307 21.3043 65.1297C21.3299 64.8782 21.3833 64.6192 21.4518 64.3503C21.5429 64.0446 21.6499 63.7705 21.7794 63.5326C21.927 63.2653 22.0911 63.0326 22.2726 62.8338C22.4623 62.6403 22.6634 62.4761 22.8833 62.3474C23.0986 62.2209 23.3388 62.1192 23.5933 62.0545C23.9021 61.9724 24.2206 61.934 24.5617 61.934C25.0248 61.934 25.4133 62.0221 25.7251 62.19C26.0406 62.3632 26.2695 62.5966 26.4223 62.9001C26.5744 63.2058 26.652 63.5574 26.652 63.9543C26.652 64.449 26.5676 64.9407 26.4035 65.4369C26.2378 65.9354 26.0134 66.3518 25.722 66.6884C25.4329 67.0265 25.0873 67.2772 24.6927 67.4391C24.2981 67.5942 23.8531 67.6755 23.3456 67.6755Z" fill="#8D287B"/>
<path d="M31.2127 65.0858H29.4966L28.9793 67.5857H27.3867L28.2707 63.6287C28.3483 63.2613 28.3889 62.991 28.3889 62.8268C28.3889 62.683 28.3483 62.5738 28.2707 62.5143C28.1871 62.4526 28.0516 62.4157 27.8513 62.3961L27.9311 62.0241L29.468 61.9676H30.1374L29.6442 64.3621H31.3685L31.8806 62.0241H33.4709L32.5891 65.9841C32.5093 66.3523 32.4709 66.6211 32.4709 66.786C32.4709 66.9344 32.5093 67.0428 32.5876 67.1008C32.6674 67.1572 32.8097 67.1994 33.0116 67.2152L32.9295 67.5857H30.6728L31.2127 65.0858Z" fill="#8D287B"/>
<path d="M37.1225 62.0236H39.4409L38.7422 65.074C38.5968 65.7118 38.5246 66.1357 38.5246 66.3593C38.5246 66.6914 38.6624 66.8608 38.9357 66.8608C39.1578 66.8608 39.4409 66.6816 39.7783 66.3337C40.1209 65.9783 40.3536 65.5032 40.4748 64.8985L41.0922 62.0236H42.6969L41.8196 65.9843C41.7421 66.3518 41.6977 66.6206 41.6977 66.7855C41.6977 67.0423 41.9077 67.1891 42.3354 67.2155L41.3264 69.677H39.8837L41.0094 67.6116C40.4838 67.6116 40.2225 67.4474 40.2225 67.1183C40.2225 66.9565 40.2647 66.7306 40.3475 66.4399L40.2768 66.4158C39.9266 66.854 39.59 67.1711 39.276 67.3744C38.959 67.5754 38.5863 67.6756 38.1707 67.6756C37.7926 67.6756 37.4937 67.5694 37.2731 67.3533C37.0517 67.1485 36.9463 66.8465 36.9463 66.4678C36.9463 66.2283 36.9809 65.9354 37.0547 65.6003L37.5193 63.5251C37.5818 63.2322 37.6112 63.0206 37.6112 62.885C37.6112 62.6998 37.566 62.5763 37.4613 62.5138C37.3597 62.4498 37.2279 62.4107 37.0517 62.3956L37.1225 62.0236Z" fill="#8D287B"/>
<path d="M45.111 64.5004C46.7593 64.4854 47.583 64.078 47.583 63.2851C47.583 63.0682 47.5107 62.8845 47.3647 62.7377C47.2193 62.5923 47.0273 62.5208 46.7894 62.5208C46.0605 62.5208 45.4995 63.1782 45.111 64.5004ZM45.0146 65.0403C44.9476 65.3227 44.9137 65.6036 44.9137 65.9002C44.9137 66.6284 45.2081 66.9988 45.8045 66.9988C46.193 66.9988 46.5002 66.91 46.7239 66.7345C46.9468 66.5553 47.0597 66.3023 47.0597 65.9755C47.0597 65.3475 46.6885 65.0343 45.9506 65.0343H45.6689L45.0146 65.0403ZM47.5582 64.6736V64.7436C48.2442 64.8988 48.5853 65.2753 48.5853 65.8814C48.5853 66.471 48.336 66.9183 47.8323 67.218C47.3285 67.5214 46.6335 67.6758 45.757 67.6758C45.0281 67.6758 44.4514 67.5049 44.044 67.157C43.6306 66.8144 43.4258 66.3242 43.4258 65.6849C43.4258 65.1239 43.5545 64.5223 43.8121 63.889C44.0696 63.255 44.4694 62.7685 45.0176 62.4357C45.5703 62.0999 46.2367 61.9342 47.0198 61.9342C47.6139 61.9342 48.0921 62.0532 48.4377 62.2829C48.7825 62.5133 48.9565 62.8213 48.9565 63.2106C48.9565 63.9221 48.4919 64.4108 47.5582 64.6736Z" fill="#8D287B"/>
<path d="M51.4519 64.5378C52.1431 64.5183 52.665 64.3857 53.0339 64.1433C53.3969 63.8985 53.5738 63.5507 53.5738 63.1026C53.5738 62.9121 53.5324 62.7653 53.4466 62.6682C53.3577 62.5695 53.2357 62.5206 53.0776 62.5206C52.7335 62.5206 52.4195 62.69 52.1431 63.0326C51.8623 63.3782 51.6311 63.8797 51.4519 64.5378ZM54.4255 66.4241C54.049 66.8465 53.6408 67.165 53.2026 67.3691C52.7689 67.5754 52.299 67.6755 51.7922 67.6755C51.3533 67.6755 50.982 67.6033 50.6763 67.4489C50.3646 67.2945 50.1387 67.0679 49.9866 66.7644C49.8307 66.464 49.7539 66.1078 49.7539 65.6846C49.7539 65.4949 49.7772 65.2441 49.8307 64.9407C49.8992 64.5295 50.0069 64.1659 50.156 63.8428C50.3405 63.4475 50.5747 63.1049 50.8698 62.8255C51.168 62.5371 51.5174 62.321 51.9105 62.1674C52.308 62.0131 52.744 61.934 53.2154 61.934C53.7794 61.934 54.2048 62.0356 54.4932 62.2397C54.7869 62.4483 54.9315 62.7593 54.9315 63.1764C54.9315 63.4603 54.8788 63.711 54.7598 63.9256C54.6491 64.1433 54.4563 64.3375 54.192 64.5122C53.9292 64.6884 53.5558 64.8353 53.0693 64.9407C52.5844 65.0514 52.0053 65.1139 51.3171 65.1267C51.2704 65.3473 51.2478 65.5754 51.2478 65.8096C51.2478 65.9474 51.2652 66.083 51.287 66.208C51.3141 66.3299 51.3615 66.4399 51.4263 66.5378C51.4903 66.6357 51.5822 66.714 51.6921 66.7682C51.8081 66.8314 51.9504 66.8608 52.1273 66.8608C52.4519 66.8608 52.7538 66.793 53.0151 66.6575C53.2832 66.5287 53.5949 66.2923 53.9541 65.9497L54.4255 66.4241Z" fill="#8D287B"/>
<path d="M61.1371 63.0971C61.4473 62.6898 61.7689 62.4014 62.0904 62.2146C62.4029 62.0294 62.7636 61.9338 63.1559 61.9338C63.5376 61.9338 63.8411 62.0414 64.0512 62.2621C64.2673 62.4759 64.3787 62.7688 64.3787 63.1476C64.3787 63.3915 64.3373 63.6807 64.2643 64.018L63.805 66.0903C63.7696 66.2604 63.744 66.3945 63.7266 66.4901C63.7138 66.5797 63.7078 66.6603 63.7078 66.7303C63.7078 66.899 63.753 67.0142 63.8411 67.0804C63.9217 67.149 64.0647 67.1941 64.2696 67.2152L64.2033 67.5857H61.8781L62.6551 64.2191C62.6905 64.0436 62.7244 63.8983 62.7432 63.7854C62.7636 63.6739 62.7794 63.5813 62.7869 63.4939C62.7997 63.4119 62.8042 63.3358 62.8042 63.2696C62.8042 63.1024 62.7688 62.9744 62.6988 62.8885C62.628 62.7967 62.5279 62.759 62.3893 62.759C62.2771 62.759 62.1484 62.8012 62 62.8976C61.863 62.994 61.6988 63.1355 61.5302 63.3208C61.3585 63.5075 61.2252 63.7078 61.1153 63.9179C61.0106 64.1272 60.9278 64.3975 60.866 64.7123L60.2448 67.5857H58.6327L59.4421 64.0715C59.4828 63.9224 59.5061 63.8072 59.5212 63.7146C59.537 63.625 59.5491 63.5474 59.5536 63.4827C59.5566 63.4194 59.5619 63.3614 59.5619 63.3117C59.5619 63.1129 59.525 62.9744 59.4632 62.8885C59.3932 62.7967 59.2863 62.759 59.1402 62.759C58.9647 62.759 58.7554 62.8675 58.5077 63.0971C58.266 63.3238 58.074 63.5572 57.9392 63.7944C57.8036 64.0323 57.7005 64.3373 57.6244 64.7123L57.007 67.5857H55.4023L56.2743 63.6287C56.2992 63.5414 56.3187 63.4119 56.3526 63.244C56.3857 63.0783 56.4016 62.9397 56.4016 62.8268C56.4016 62.6709 56.3549 62.5633 56.272 62.5083C56.1794 62.448 56.0469 62.4104 55.8534 62.3953L55.9422 62.0234L57.4821 61.9676H58.0717L57.7524 63.1762L57.8209 63.1943C58.077 62.8765 58.3209 62.6235 58.5363 62.4443C58.7554 62.2636 58.976 62.1333 59.1906 62.0542C59.4113 61.9722 59.6469 61.9338 59.9135 61.9338C60.2862 61.9338 60.5829 62.0392 60.793 62.2395C61.0106 62.4503 61.1213 62.7372 61.1371 63.0971Z" fill="#8D287B"/>
<path d="M66.9127 66.0446C66.9127 66.4 66.9715 66.6575 67.0852 66.8314C67.1996 67.0069 67.3818 67.0957 67.6281 67.0957C67.7636 67.0957 67.8976 67.0641 68.0204 67.0069C68.1476 66.9474 68.2726 66.8518 68.3878 66.7102C68.5136 66.5701 68.6228 66.3932 68.7184 66.1741C68.8163 65.964 68.9112 65.6974 68.9993 65.3827C69.0829 65.0634 69.1514 64.7577 69.1966 64.4542C69.2493 64.15 69.2749 63.8707 69.2749 63.6056C69.2749 63.2329 69.2161 62.9558 69.1032 62.7841C68.9865 62.6087 68.8103 62.5206 68.5761 62.5206C68.2591 62.5206 67.9842 62.6712 67.7583 62.9746C67.5294 63.2796 67.3299 63.7532 67.1635 64.3857C66.9941 65.025 66.9127 65.5777 66.9127 66.0446ZM67.491 67.6755C67.0844 67.6755 66.7177 67.6033 66.4052 67.4572C66.0935 67.3066 65.8525 67.0844 65.6756 66.7825C65.5001 66.4828 65.415 66.1168 65.415 65.6794C65.415 65.5182 65.4218 65.3307 65.4421 65.1297C65.4708 64.8782 65.5272 64.6192 65.6018 64.3503C65.6861 64.0446 65.7953 63.7705 65.9286 63.5326C66.0649 63.2653 66.2313 63.0326 66.4158 62.8338C66.601 62.6403 66.8051 62.4761 67.0272 62.3474C67.2433 62.2209 67.482 62.1192 67.7388 62.0545C68.0437 61.9724 68.363 61.934 68.7011 61.934C69.1679 61.934 69.5565 62.0221 69.8682 62.19C70.1837 62.3632 70.4119 62.5966 70.5655 62.9001C70.7199 63.2058 70.7936 63.5574 70.7936 63.9543C70.7936 64.449 70.7078 64.9407 70.5497 65.4369C70.3833 65.9354 70.1498 66.3518 69.8614 66.6884C69.5761 67.0265 69.2304 67.2772 68.8359 67.4391C68.4406 67.5942 67.9925 67.6755 67.491 67.6755Z" fill="#8D287B"/>
<path d="M73.2961 64.5004C74.9429 64.4854 75.7704 64.078 75.7704 63.2851C75.7704 63.0682 75.6959 62.8845 75.5528 62.7377C75.4037 62.5923 75.2102 62.5208 74.9722 62.5208C74.2411 62.5208 73.6778 63.1782 73.2961 64.5004ZM73.1974 65.0403C73.1327 65.3227 73.1048 65.6036 73.1048 65.9002C73.1048 66.6284 73.3947 66.9988 73.9896 66.9988C74.3766 66.9988 74.6831 66.91 74.9022 66.7345C75.1319 66.5553 75.241 66.3023 75.241 65.9755C75.241 65.3475 74.8728 65.0343 74.1319 65.0343H73.854L73.1974 65.0403ZM75.7418 64.6736V64.7436C76.4225 64.8988 76.7704 65.2753 76.7704 65.8814C76.7704 66.471 76.5181 66.9183 76.0144 67.218C75.5106 67.5214 74.8224 67.6758 73.9399 67.6758C73.2132 67.6758 72.6402 67.5049 72.2246 67.157C71.8157 66.8144 71.6094 66.3242 71.6094 65.6849C71.6094 65.1239 71.7411 64.5223 71.9972 63.889C72.2494 63.255 72.6545 62.7685 73.2027 62.4357C73.7509 62.0999 74.415 61.9342 75.2049 61.9342C75.7975 61.9342 76.2772 62.0532 76.6183 62.2829C76.9676 62.5133 77.1393 62.8213 77.1393 63.2106C77.1393 63.9221 76.6717 64.4108 75.7418 64.6736Z" fill="#8D287B"/>
<path d="M80.8578 62.0238H83.1792L82.4835 65.0742C82.3795 65.5079 82.3238 65.8061 82.2967 65.9718C82.2704 66.1359 82.2598 66.2654 82.2598 66.3596C82.2598 66.5327 82.299 66.6608 82.3667 66.7406C82.4345 66.8196 82.5407 66.861 82.6732 66.861C82.7485 66.861 82.8283 66.843 82.9119 66.8046C83 66.7684 83.0806 66.718 83.1702 66.6532C83.2575 66.5802 83.3584 66.483 83.4827 66.3596C83.6092 66.2361 83.7131 66.1081 83.808 65.9635C83.9036 65.8242 83.9797 65.6743 84.0437 65.5117C84.1062 65.3536 84.1589 65.151 84.2131 64.8988L84.8305 62.0238H86.4352L85.5549 65.9846C85.5376 66.0712 85.5112 66.2007 85.4819 66.3686C85.4502 66.5327 85.4322 66.6713 85.4322 66.7857C85.4322 66.9461 85.4773 67.0485 85.5662 67.1095C85.6513 67.1653 85.7891 67.2006 85.9758 67.2157L85.8907 67.5862H83.7846L84.079 66.4401L84.0165 66.416C83.6709 66.852 83.3328 67.1653 83.0106 67.3716C82.689 67.5756 82.3238 67.6758 81.9044 67.6758C81.5324 67.6758 81.2343 67.5696 81.0121 67.3535C80.7945 67.1389 80.6846 66.843 80.6846 66.468C80.6846 66.224 80.72 65.9319 80.7945 65.6005L81.2561 63.5253C81.2885 63.3514 81.3186 63.2196 81.3321 63.127C81.3412 63.0313 81.3495 62.9515 81.3495 62.8853C81.3495 62.7181 81.3088 62.6036 81.229 62.5359C81.1462 62.4711 80.9993 62.4222 80.7862 62.3958L80.8578 62.0238Z" fill="#8D287B"/>
<path d="M95.1917 67.5857H92.874L93.5757 64.5376C93.6766 64.1039 93.7346 63.8072 93.7587 63.6415C93.779 63.4751 93.7896 63.3471 93.7896 63.256C93.7896 63.0843 93.7504 62.9601 93.6842 62.8788C93.6126 62.7959 93.5117 62.759 93.3769 62.759C93.2572 62.759 93.1277 62.7989 92.9839 62.89C92.8416 62.9804 92.6857 63.1205 92.5088 63.3117C92.3303 63.5007 92.1925 63.7063 92.0886 63.9134C91.9847 64.1272 91.8988 64.3975 91.8356 64.7123L91.2204 67.5857H89.6143L90.4915 63.6287C90.5148 63.5414 90.5329 63.4119 90.5668 63.244C90.5977 63.0783 90.6165 62.9397 90.6165 62.8268C90.6165 62.6709 90.5706 62.5633 90.4862 62.5083C90.3959 62.448 90.2588 62.4104 90.0736 62.3953L90.1564 62.0234L91.6933 61.9676H92.2836L91.9643 63.1769L92.0344 63.1943C92.2911 62.8818 92.5276 62.6303 92.7482 62.4503C92.9718 62.2688 93.1895 62.1356 93.4048 62.0557C93.6247 61.9752 93.8671 61.9338 94.1367 61.9338C94.514 61.9338 94.8204 62.0414 95.0388 62.2621C95.2609 62.4759 95.3709 62.7696 95.3709 63.1476C95.3709 63.3915 95.3325 63.6807 95.2542 64.018L94.8016 66.0903C94.7624 66.2604 94.7323 66.3945 94.7271 66.4901C94.7097 66.5797 94.7015 66.6603 94.7015 66.7303C94.7015 66.899 94.7459 67.0142 94.831 67.0804C94.9115 67.149 95.0576 67.1941 95.2647 67.2152L95.1917 67.5857Z" fill="#8D287B"/>
<path d="M97.9069 66.0446C97.9069 66.4 97.9694 66.6575 98.0786 66.8314C98.1923 67.0069 98.3685 67.0957 98.6177 67.0957C98.7563 67.0957 98.8888 67.0641 99.0115 67.0069C99.1403 66.9474 99.2555 66.8518 99.3843 66.7102C99.5063 66.5701 99.6177 66.3932 99.7111 66.1741C99.8074 65.964 99.8986 65.6974 99.9897 65.3827C100.078 65.0634 100.143 64.7577 100.191 64.4542C100.241 64.15 100.262 63.8707 100.262 63.6056C100.262 63.2329 100.209 62.9558 100.093 62.7841C99.9791 62.6087 99.8074 62.5206 99.5635 62.5206C99.2517 62.5206 98.9807 62.6712 98.7518 62.9746C98.5221 63.2796 98.3195 63.7532 98.1561 64.3857C97.9912 65.025 97.9069 65.5777 97.9069 66.0446ZM98.4807 67.6755C98.0756 67.6755 97.7119 67.6033 97.3964 67.4572C97.0892 67.3066 96.8437 67.0844 96.6675 66.7825C96.489 66.4828 96.3994 66.1168 96.3994 65.6794C96.3994 65.5182 96.4115 65.3307 96.4333 65.1297C96.4657 64.8782 96.5109 64.6192 96.5899 64.3503C96.6727 64.0446 96.7827 63.7705 96.9175 63.5326C97.0538 63.2653 97.2239 63.0326 97.4069 62.8338C97.5967 62.6403 97.7955 62.4761 98.0183 62.3474C98.2345 62.2209 98.4731 62.1192 98.7292 62.0545C99.0401 61.9724 99.3587 61.934 99.6945 61.934C100.158 61.934 100.545 62.0221 100.859 62.19C101.175 62.3632 101.407 62.5966 101.555 62.9001C101.706 63.2058 101.779 63.5574 101.779 63.9543C101.779 64.449 101.703 64.9407 101.537 65.4369C101.368 65.9354 101.145 66.3518 100.859 66.6884C100.567 67.0265 100.225 67.2772 99.8285 67.4391C99.4362 67.5942 98.9844 67.6755 98.4807 67.6755Z" fill="#8D287B"/>
<path d="M106.411 63.8194C106.411 63.2788 106.19 63.0062 105.743 63.0062C105.261 63.0062 104.871 63.3255 104.58 63.9663C104.291 64.604 104.14 65.287 104.14 66.0114C104.14 66.3645 104.191 66.6281 104.297 66.8163C104.401 66.9993 104.585 67.0957 104.864 67.0957C105.357 67.0957 105.738 66.671 106.011 65.8314C106.277 64.9948 106.411 64.3239 106.411 63.8194ZM106.701 62.4881C106.72 62.3955 106.73 62.272 106.73 62.1192C106.73 60.9008 106.395 60.2939 105.743 60.2939C105.37 60.2939 104.968 60.3858 104.536 60.5778L104.341 59.9656C104.931 59.7043 105.49 59.5763 106.009 59.5763C106.705 59.5763 107.242 59.7985 107.62 60.2435C107.998 60.6915 108.184 61.3323 108.184 62.1538C108.184 63.8887 107.899 65.2448 107.322 66.2207C106.748 67.1943 105.909 67.686 104.801 67.686C104.11 67.686 103.572 67.5136 103.178 67.177C102.788 66.8434 102.596 66.3645 102.596 65.7403C102.596 64.8096 102.889 63.9949 103.477 63.3021C104.059 62.6086 104.787 62.2638 105.669 62.2638C106.089 62.2638 106.433 62.3375 106.701 62.4881Z" fill="#8D287B"/>
<path d="M112.796 64.1003C112.82 63.9791 112.841 63.8458 112.859 63.7058C112.875 63.5529 112.885 63.4091 112.885 63.269C112.885 63.0206 112.839 62.8368 112.747 62.7118C112.652 62.5853 112.5 62.5206 112.284 62.5206C111.943 62.5206 111.628 62.693 111.363 63.0431C111.09 63.3948 110.88 63.8616 110.711 64.4542C110.548 65.0423 110.467 65.5754 110.467 66.0393C110.467 66.3126 110.501 66.5167 110.588 66.6537C110.662 66.7855 110.79 66.854 110.958 66.854C111.205 66.854 111.457 66.7343 111.711 66.4918C111.968 66.2516 112.172 65.9693 112.33 65.6432C112.488 65.3164 112.628 64.8744 112.752 64.3082L112.796 64.1003ZM113.638 62.3376L114.142 61.934L114.775 62.0236L113.91 65.9324C113.869 66.1296 113.832 66.2923 113.81 66.409C113.793 66.5317 113.784 66.6281 113.784 66.714C113.784 66.8819 113.822 66.9994 113.91 67.0769C113.986 67.1515 114.132 67.1989 114.336 67.2155L114.278 67.5859H112.126L112.433 66.4399L112.358 66.4158C112.104 66.7448 111.872 66.9994 111.65 67.1816C111.433 67.3608 111.217 67.4918 111.009 67.5633C110.795 67.6432 110.551 67.6755 110.275 67.6755C110.016 67.6755 109.784 67.6138 109.584 67.4918C109.388 67.3691 109.229 67.171 109.114 66.9067C108.998 66.6402 108.943 66.3021 108.943 65.8887C108.943 65.4949 108.985 65.0988 109.079 64.7035C109.171 64.3021 109.306 63.9256 109.483 63.583C109.665 63.2329 109.894 62.94 110.161 62.69C110.434 62.4483 110.748 62.2623 111.09 62.1298C111.433 62.0003 111.812 61.934 112.216 61.934C112.771 61.934 113.246 62.0695 113.638 62.3376Z" fill="#8D287B"/>
<path d="M117.411 65.5114C117.349 65.7908 117.322 66.0619 117.322 66.3254C117.322 66.6018 117.368 66.796 117.456 66.918C117.551 67.0332 117.703 67.0957 117.923 67.0957C118.06 67.0957 118.187 67.0701 118.304 67.0264C118.42 66.9828 118.535 66.9067 118.652 66.8043C118.769 66.7019 118.878 66.5536 118.993 66.3518C119.14 66.1078 119.27 65.8269 119.382 65.5114C119.489 65.2012 119.572 64.8706 119.642 64.5235C119.703 64.1809 119.731 63.8616 119.731 63.5755C119.731 63.2946 119.691 63.0898 119.616 62.9603C119.535 62.827 119.411 62.7623 119.243 62.7623C118.993 62.7623 118.746 62.882 118.49 63.1237C118.232 63.3616 118.026 63.6418 117.876 63.9595C117.722 64.2773 117.584 64.7283 117.454 65.3051L117.411 65.5114ZM116.289 63.6809C116.379 63.2766 116.425 62.9942 116.425 62.8383C116.425 62.6862 116.386 62.577 116.307 62.519C116.226 62.4573 116.089 62.4159 115.882 62.3956L115.965 62.0236L117.481 61.9679H118.093L117.773 63.1764L117.839 63.1945C118.096 62.8737 118.331 62.6177 118.553 62.4362C118.761 62.2585 118.977 62.1298 119.192 62.0529C119.401 61.9724 119.647 61.934 119.927 61.934C120.186 61.934 120.42 61.9972 120.614 62.1192C120.81 62.2397 120.974 62.4385 121.088 62.7096C121.2 62.9746 121.261 63.315 121.261 63.7253C121.261 64.1199 121.21 64.5107 121.124 64.9128C121.031 65.3134 120.898 65.6846 120.719 66.0325C120.54 66.3759 120.314 66.671 120.047 66.921C119.772 67.165 119.462 67.3532 119.118 67.4828C118.769 67.6115 118.392 67.6755 117.988 67.6755C117.652 67.6755 117.335 67.6183 117.023 67.5046L116.773 68.689C116.764 68.744 116.75 68.8065 116.743 68.8562C116.73 68.9134 116.723 68.9594 116.72 69.0083C116.72 69.0565 116.713 69.0979 116.713 69.1423C116.713 69.3005 116.761 69.4172 116.844 69.491C116.926 69.5595 117.068 69.6054 117.279 69.634L117.208 70H114.886L116.289 63.6809Z" fill="#8D287B"/>
<path d="M125.241 65.9359C125.192 65.6708 125.103 65.4758 125.007 65.3516C124.899 65.2273 124.735 65.1671 124.503 65.1671C124.283 65.3712 124.106 65.5489 123.971 65.6904L123.585 67.5857H121.976L122.868 63.6295C122.948 63.262 122.992 62.9947 122.992 62.8268C122.992 62.6679 122.948 62.558 122.868 62.5015C122.784 62.448 122.635 62.4089 122.424 62.3901L122.517 62.0241L124.189 61.9345H124.82L124.223 64.6829C124.93 63.8855 125.539 63.2281 126.063 62.7123C126.583 62.1935 127.153 61.9345 127.773 61.9345C128.033 61.9345 128.259 61.988 128.463 62.0881L128.14 63.5015H127.472C127.456 63.3471 127.405 63.2281 127.313 63.1415C127.225 63.0519 127.125 63.006 127.015 63.006C126.857 63.006 126.655 63.1047 126.41 63.2974C126.164 63.4902 125.791 63.8712 125.287 64.4284V64.454C125.643 64.454 125.955 64.5496 126.215 64.7386C126.472 64.9314 126.643 65.1829 126.721 65.4946L127.015 66.6264C127.072 66.8342 127.139 66.9795 127.222 67.0563C127.302 67.1392 127.472 67.1896 127.734 67.2115L127.651 67.5857H125.623C125.579 67.5096 125.501 67.1655 125.371 66.5549L125.241 65.9359Z" fill="#8D287B"/>
<path d="M130.065 66.0446C130.065 66.4 130.121 66.6575 130.235 66.8314C130.35 67.0069 130.531 67.0957 130.778 67.0957C130.916 67.0957 131.049 67.0641 131.171 67.0069C131.298 66.9474 131.42 66.8518 131.542 66.7102C131.662 66.5701 131.775 66.3932 131.869 66.1741C131.964 65.964 132.059 65.6974 132.147 65.3827C132.238 65.0634 132.303 64.7577 132.354 64.4542C132.399 64.15 132.422 63.8707 132.422 63.6056C132.422 63.2329 132.371 62.9558 132.249 62.7841C132.139 62.6087 131.961 62.5206 131.727 62.5206C131.412 62.5206 131.135 62.6712 130.908 62.9746C130.68 63.2796 130.486 63.7532 130.315 64.3857C130.153 65.025 130.065 65.5777 130.065 66.0446ZM130.644 67.6755C130.231 67.6755 129.872 67.6033 129.556 67.4572C129.246 67.3066 129.002 67.0844 128.83 66.7825C128.647 66.4828 128.556 66.1168 128.556 65.6794C128.556 65.5182 128.571 65.3307 128.592 65.1297C128.622 64.8782 128.675 64.6192 128.752 64.3503C128.837 64.0446 128.94 63.7705 129.074 63.5326C129.221 63.2653 129.382 63.0326 129.568 62.8338C129.754 62.6403 129.959 62.4761 130.172 62.3474C130.391 62.2209 130.631 62.1192 130.889 62.0545C131.194 61.9724 131.516 61.934 131.854 61.934C132.315 61.934 132.708 62.0221 133.017 62.19C133.331 62.3632 133.565 62.5966 133.716 62.9001C133.867 63.2058 133.939 63.5574 133.939 63.9543C133.939 64.449 133.858 64.9407 133.692 65.4369C133.531 65.9354 133.303 66.3518 133.014 66.6884C132.729 67.0265 132.383 67.2772 131.988 67.4391C131.594 67.5942 131.142 67.6755 130.644 67.6755Z" fill="#8D287B"/>
<path d="M136.439 64.5004C138.085 64.4854 138.914 64.078 138.914 63.2851C138.914 63.0682 138.842 62.8845 138.692 62.7377C138.551 62.5923 138.354 62.5208 138.115 62.5208C137.385 62.5208 136.825 63.1782 136.439 64.5004ZM136.338 65.0403C136.274 65.3227 136.247 65.6036 136.247 65.9002C136.247 66.6284 136.542 66.9988 137.13 66.9988C137.518 66.9988 137.827 66.91 138.045 66.7345C138.271 66.5553 138.384 66.3023 138.384 65.9755C138.384 65.3475 138.015 65.0343 137.274 65.0343H137L136.338 65.0403ZM138.882 64.6736V64.7436C139.569 64.8988 139.916 65.2753 139.916 65.8814C139.916 66.471 139.665 66.9183 139.156 67.218C138.652 67.5214 137.964 67.6758 137.086 67.6758C136.357 67.6758 135.778 67.5049 135.373 67.157C134.963 66.8144 134.755 66.3242 134.755 65.6849C134.755 65.1239 134.882 64.5223 135.137 63.889C135.393 63.255 135.799 62.7685 136.347 62.4357C136.893 62.0999 137.557 61.9342 138.344 61.9342C138.943 61.9342 139.416 62.0532 139.762 62.2829C140.109 62.5133 140.283 62.8213 140.283 63.2106C140.283 63.9221 139.816 64.4108 138.882 64.6736Z" fill="#8D287B"/>
<path fill-rule="evenodd" clip-rule="evenodd" d="M130.454 2.00003C141.54 2.00003 150.524 10.9975 150.524 22.0898C150.524 33.1813 141.54 42.175 130.454 42.175C119.377 42.175 110.385 33.1813 110.385 22.0898C110.385 10.9975 119.377 2.00003 130.454 2.00003Z" fill="#F0801B"/>
<path fill-rule="evenodd" clip-rule="evenodd" d="M17.7876 23.3614C24.0646 22.393 30.587 28.7566 32.3535 37.5756C34.1207 46.3878 30.4574 54.3213 24.1768 55.2904C17.9021 56.2572 11.3774 49.8945 9.61092 41.0747C7.84817 32.2617 11.5092 24.332 17.7876 23.3614ZM20.9171 19.7659C31.2564 19.7659 39.6417 28.4757 39.6417 39.2163C39.6417 49.9562 31.2564 58.6646 20.9171 58.6646C10.5785 58.6646 2.18945 49.9562 2.18945 39.2163C2.18945 28.4757 10.5785 19.7659 20.9171 19.7659Z" fill="#8D287B"/>
<path fill-rule="evenodd" clip-rule="evenodd" d="M56.2534 42.4318C53.5178 42.9356 51.0104 44.0831 48.9042 46.3715C45.7793 51.0634 52.0698 55.1167 54.9447 50.5566C56.1518 48.589 56.6216 45.1381 56.2534 42.4318ZM44.2056 37.4696L45.3471 30.4375C49.798 29.1973 54.249 29.1732 58.7021 30.9299C61.7442 32.5315 62.9309 34.9825 62.7992 39.1601V49.9203C62.9791 51.7757 64.0085 53.1582 65.8857 54.0716L60.5507 58.6543C58.9823 58.2243 57.2715 56.6099 56.6871 54.7779C55.1443 57.8071 52.3635 58.9457 49.4743 58.7883C45.6784 58.2032 43.6393 55.9232 42.2599 52.2471C40.787 46.8474 43.1943 43.7172 46.1521 41.9725C49.3794 40.1525 52.4674 39.5742 55.8174 39.0908C57.4206 37.063 56.1751 33.7469 53.1978 34.097C49.9404 34.3033 46.9623 35.4132 44.2056 37.4696Z" fill="#8D287B"/>
<path fill-rule="evenodd" clip-rule="evenodd" d="M71.5595 38.8525L67.8623 33.3654C70.7312 30.7126 74.1084 29.2217 78.2302 29.1931C80.0238 29.0817 84.1058 29.6057 86.2872 31.379C88.3542 33.1267 89.4422 36.2524 89.0409 38.4105C88.6787 40.3102 87.8331 41.7357 86.1133 42.8358C88.6426 44.0187 90.2442 47.2295 90.4143 49.5419C90.3518 52.5365 88.9272 54.6562 86.861 56.4046C84.669 58.1779 80.0238 58.9392 78.2302 58.8248C74.1084 58.7976 71.2011 57.7751 68.3307 55.12L70.7184 48.4659C71.561 50.4831 73.567 53.2534 74.5398 54.1291C76.0616 55.5297 78.2114 55.8143 79.9094 55.4243C82.0441 55.0598 84.1126 52.3581 83.6043 49.438C82.9108 46.6956 80.517 45.5458 77.8906 45.5789C77.7152 45.5812 75.1204 45.8274 74.9442 45.8379L75.347 44.0534L75.3832 43.9638L75.7446 42.1822C78.5796 42.3795 81.252 41.268 81.9944 38.3457C82.3235 35.6364 81.2881 34.196 79.3409 33.6004C77.6399 33.2065 75.4901 33.4964 73.9736 34.8932C72.9992 35.7697 72.3968 36.8269 71.5595 38.8525Z" fill="#8D287B"/>
<path fill-rule="evenodd" clip-rule="evenodd" d="M136.831 39.8955L140.117 32.6307C136.03 29.0359 131.745 28.7769 127.299 31.2844C123.314 34.1389 120.956 38.12 120.72 43.9346C120.937 55.0736 126.549 59.4944 135.155 59.0749L140.924 52.0759C137.331 52.8116 133.103 52.2197 130.421 49.8553C127.451 47.2214 126.121 43.1658 126.493 38.821C126.795 36.5786 127.74 34.9168 129.649 34.1111C133.327 32.901 135.394 35.9905 136.831 39.8955Z" fill="#8D287B"/>
<path fill-rule="evenodd" clip-rule="evenodd" d="M105.451 29.5973H117.03V51.9889C116.927 55.604 118.399 57.305 121.353 57.7011L120.374 58.939H117.03H110.117L110.113 55.8126C108.361 57.9443 106.604 58.988 104.846 58.939H101.191C96.7833 58.9006 94.4302 56.3141 94.6132 50.7051V35.6716C94.6335 32.8916 92.9717 31.278 90.3174 31.1296L90.3189 29.5973H101.191V48.6886C101.852 54.6929 109.806 54.7968 110.455 48.6886V35.7786C110.385 32.7132 108.251 31.5792 105.447 31.3073L105.451 29.5973Z" fill="#8D287B"/>
</svg>
